<svg width="800" height="300" xmlns="http://www.w3.org/2000/svg" viewBox="0 0 800 300"><path d="M-13267.999999999987,121.89323912011639L-13242.374374374362,163.39486868595952L-13216.748748748734,180.9969345407713L-13191.123123123109,182.22148418209412L-13165.497497497483,152.6064094252096L-13139.87187187186,145.63833941216208L-13114.246246246234,108.69838204999684L-13088.620620620606,171.3432722484524L-13062.99499499498,170.95479357020773L-13037.369369369355,140.7791090260105L-13011.743743743731,123.53939888204849L-12986.118118118105,115.23165079836082L-12960.492492492478,144.65902914067814L-12934.866866866852,179.45091574074428L-12909.241241241227,165.37114012805628L-12883.615615615603,175.22623719063404L-12857.989989989977,155.14038691639453L-12832.36436436435,140.26388106882112L-12806.738738738724,181.67313441162392L-12781.113113113099,209.20000234723258L-12755.487487487475,217.84828995511873L-12729.861861861848,173.0384686209827L-12704.236236236222,155.27981798658283L-12678.610610610596,133.20725941058274L-12652.98498498497,195.85291478316276L-12627.359359359347,130.6380393039438L-12601.73373373372,105.17569223319683L-12576.108108108094,155.54561768649893L-12550.482482482468,144.32296253920018L-12524.856856856843,165.29249479942246L-12499.231231231219,132.90101189483187L-12473.605605605591,121.78620683863201L-12447.979979979966,149.23645653325468L-12422.35435435434,110.52261253287438L-12396.728728728714,147.2855031253354L-12371.10310310309,128.03770931043553L-12345.477477477463,223.90170774106298L-12319.851851851838,93.68312114186969L-12294.226226226212,225.45859508221832L-12268.600600600586,161.20787073196965L-12242.974974974963,164.18024119852197L-12217.349349349335,131.4050058405898L-12191.72372372371,157.24933027993802L-12166.098098098084,176.1246616978619L-12140.472472472458,93.42705368897015L-12114.846846846833,182.75415767340763L-12089.221221221207,174.2272474273819L-12063.595595595581,146.6309220140932L-12037.969969969956,152.2509144149932L-12012.34434434433,180.19845660049526L-11986.718718718705,165.5170589110701L-11961.093093093079,147.78162678273557L-11935.467467467453,121.87631192828366L-11909.841841841828,159.49083776352717L-11884.216216216202,136.20447523156847L-11858.590590590577,151.17499533946534L-11832.964964964951,162.03278151291687L-11807.339339339325,185.74015038910488L-11781.7137137137,172.1604214779744L-11756.088088088074,73.74395479489303L-11730.462462462448,106.93673677713099L-11704.836836836823,182.7197219009684L-11679.211211211197,129.70893770551413L-11653.585585585572,75.14855754886352L-11627.959959959946,175.64721486121186L-11602.33433433432,104.41398733598774L-11576.708708708695,154.20689926381272L-11551.08308308307,183.5368897637277L-11525.457457457444,179.29939801158653L-11499.831831831818,148.14670150549088L-11474.206206206192,125.88858187973543L-11448.580580580567,74.25161832842514L-11422.954954954941,138.78229326066258L-11397.329329329315,119.97656464918379L-11371.70370370369,207.67917956497934L-11346.078078078064,151.42835413383992L-11320.452452452439,126.25566012465399L-11294.826826826813,144.55207974838692L-11269.201201201187,129.0607532568309L-11243.575575575562,161.9412878935217L-11217.949949949936,108.78027650118003L-11192.32432432431,169.75651578700374L-11166.698698698685,127.7869735473329L-11141.07307307306,139.4207469246099L-11115.447447447434,166.62512846513457L-11089.821821821808,165.55989950261437L-11064.196196196182,128.2115568878637L-11038.570570570557,144.48601687204828L-11012.944944944931,196.9660928824014L-10987.319319319306,136.5795979863266L-10961.69369369368,192.18582349501432L-10936.068068068054,148.47352493442995L-10910.442442442429,122.54621674075841L-10884.816816816803,151.15805222961978L-10859.191191191177,158.39928213326994L-10833.565565565552,158.22328908278297L-10807.939939939926,149.7506895410035L-10782.3143143143,189.18464987574407L-10756.688688688675,152.47329286277412L-10731.06306306305,153.63042538523544L-10705.437437437424,180.3703323569319L-10679.811811811798,80.13738550782642L-10654.186186186173,141.076467515517L-10628.560560560547,123.46455830368947L-10602.93493493492,109.21471115081104L-10577.309309309296,204.54372834193947L-10551.68368368367,136.1342277480015L-10526.058058058044,195.0618622460354L-10500.432432432419,132.71138150645075L-10474.806806806791,136.09932408634552L-10449.181181181168,111.27907052064293L-10423.555555555542,129.60828934301844L-10397.929929929916,171.43728296563543L-10372.30430430429,147.263531781408L-10346.678678678663,172.76323289610352L-10321.05305305304,197.17564770781868L-10295.427427427414,111.36475211173985L-10269.801801801788,133.20391901481474L-10244.176176176163,167.98543784991725L-10218.550550550535,116.3878556643966L-10192.924924924911,132.76954145898264L-10167.299299299286,204.75299317437162L-10141.67367367366,132.14512425600034L-10116.048048048035,169.6228446819858L-10090.422422422407,127.22660866666254L-10064.796796796783,169.07955575673833L-10039.171171171158,112.59653144694715L-10013.545545545532,130.59691518987373L-9987.919919919907,148.9258865732665L-9962.29429429428,171.64932382654382L-9936.668668668655,154.52880151608565L-9911.04304304303,71.41956555107606L-9885.417417417404,115.30824926471587L-9859.791791791778,124.51480538952333L-9834.166166166151,185.21148957134676L-9808.540540540527,163.7690908817401L-9782.9149149149,184.77142318975552L-9757.289289289276,171.34237902254986L-9731.66366366365,174.41640536881292L-9706.038038038023,135.87521035599494L-9680.4124124124,161.17139078810027L-9654.786786786772,129.63323273635208L-9629.161161161148,142.18037356251642L-9603.535535535522,177.89513873391564L-9577.909909909895,173.74366134972456L-9552.284284284271,130.54518700224048L-9526.658658658644,201.98811074135935L-9501.03303303302,152.25423133371072L-9475.407407407394,165.25919604992316L-9449.781781781767,155.10332491515405L-9424.156156156143,143.40839407927314L-9398.530530530516,131.67562957700096L-9372.904904904892,134.93458201481093L-9347.279279279266,162.04015156241286L-9321.653653653639,97.70698355054063L-9296.028028028015,136.96293068824332L-9270.402402402387,153.96884217418165L-9244.776776776764,146.92322394991308L-9219.151151151138,130.01411987583361L-9193.52552552551,137.93832208825185L-9167.899899899887,146.47809279585854L-9142.27427427426,167.57612628666033L-9116.648648648636,142.14565552432265L-9091.02302302301,99.01120023229788L-9065.397397397383,168.86178590442177L-9039.771771771759,130.46514686267102L-9014.146146146131,61.841932397023584L-8988.520520520507,84.40447415395616L-8962.89489489488,147.35569773851313L-8937.269269269254,132.2855262664089L-8911.64364364363,165.73226907561872L-8886.018018018003,140.77276854882282L-8860.39239239238,146.3323404200577L-8834.766766766752,161.4940635013192L-8809.141141141126,70.53000829214969L-8783.515515515503,181.7855242548787L-8757.889889889875,132.12506204430352L-8732.264264264251,119.2922245120395L-8706.638638638624,114.13170469030368L-8681.013013012998,133.55835975689132L-8655.387387387374,164.92754750177122L-8629.761761761747,150.68592508477045L-8604.136136136123,198.0127363654608L-8578.510510510496,161.3105636621592L-8552.88488488487,120.93022512577488L-8527.259259259246,141.7267663680406L-8501.633633633619,186.21016448458315L-8476.008008007995,142.5544958475341L-8450.382382382368,124.55235609351084L-8424.756756756742,122.79143223133627L-8399.131131131118,169.04522024495952L-8373.50550550549,152.67065742779874L-8347.879879879867,89.38206240353031L-8322.25425425424,157.75764761454377L-8296.628628628614,142.6864800045289L-8271.00300300299,121.85833247268101L-8245.377377377363,180.7594267758605L-8219.751751751739,154.74523135411968L-8194.126126126112,138.35630853535125L-8168.500500500487,136.20221637512265L-8142.87487487486,149.89015624169056L-8117.249249249236,201.31893875940779L-8091.62362362361,128.26412148829814L-8065.9979979979835,115.71433076708362L-8040.372372372359,165.34626278098608L-8014.746746746732,192.67615878602356L-7989.1211211211075,132.89306512488452L-7963.495495495482,145.10631055008847L-7937.869869869855,92.05468850841118L-7912.244244244231,186.14383968423942L-7886.618618618604,157.55043285145206L-7860.992992992979,157.69543478054285L-7835.367367367354,113.66813357201417L-7809.741741741727,213.1279980311453L-7784.116116116103,161.91879491321623L-7758.490490490476,177.74603884006444L-7732.864864864851,103.22173400890469L-7707.239239239226,164.93425608002335L-7681.613613613599,150.36161269782573L-7655.9879879879745,100.39557310662727L-7630.362362362348,175.12549809788072L-7604.736736736723,129.12333728387182L-7579.111111111098,105.43762492677868L-7553.485485485471,234.89031264438398L-7527.859859859846,156.97798697407464L-7502.23423423422,145.38369737521285L-7476.608608608595,173.72979494364105L-7450.98298298297,153.4577182465051L-7425.357357357343,116.02219845091827L-7399.731731731718,162.06658326329398L-7374.106106106092,147.16777047858173L-7348.480480480467,183.750532292392L-7322.854854854841,186.01628280907875L-7297.229229229215,167.83438107395045L-7271.60360360359,101.75969060054365L-7245.977977977964,153.4462709838667L-7220.352352352339,187.38471719480407L-7194.7267267267125,151.0450501362164L-7169.101101101087,190.3296165988995L-7143.475475475462,138.54216111915315L-7117.849849849836,183.14589836691113L-7092.224224224211,121.1524286585441L-7066.598598598584,73.73357695998715L-7040.972972972959,140.38921870913177L-7015.347347347334,153.35331448073447L-6989.721721721708,170.6343131036869L-6964.096096096083,160.05453739025666L-6938.470470470456,189.37876536256192L-6912.844844844831,148.6263588312894L-6887.219219219206,190.59834732433478L-6861.5935935935795,158.17352188354153L-6835.967967967955,206.9434701656319L-6810.342342342328,193.95609511175195L-6784.716716716703,124.31975096413404L-6759.091091091078,178.9421702299368L-6733.465465465451,160.75241887920785L-6707.839839839827,102.92205108397019L-6682.2142142142,125.6675791221393L-6656.588588588575,186.77006840269334L-6630.96296296295,156.33261979968896L-6605.337337337323,163.91573582775032L-6579.711711711699,134.16130667603676L-6554.086086086072,123.5035380715378L-6528.4604604604465,123.81102753909931L-6502.83483483482,201.47624528403819L-6477.209209209195,229.19146888006804L-6451.5835835835705,152.80986496328302L-6425.957957957944,164.93834665773156L-6400.332332332318,133.34466602169718L-6374.706706706693,124.52913096048502L-6349.081081081067,126.77388021844655L-6323.455455455442,180.16372124644096L-6297.829829829816,171.2271831560436L-6272.20420420419,159.85083068364952L-6246.578578578565,103.02284472533151L-6220.952952952939,167.38954905719274L-6195.3273273273135,149.95671177106345L-6169.701701701688,138.42115667880228L-6144.076076076062,241.42212880230372L-6118.450450450437,111.87298942512399L-6092.824824824811,155.8882969417666L-6067.199199199185,133.53460803835017L-6041.57357357356,115.63187239890809L-6015.947947947934,148.72383465584994L-5990.3223223223085,141.70536633435336L-5964.696696696683,162.6584694933521L-5939.071071071057,124.2256149785097L-5913.445445445432,68.76624033675532L-5887.819819819806,121.77764101622282L-5862.19419419418,159.45298583357103L-5836.568568568555,110.5101213219533L-5810.942942942929,145.1067804514911L-5785.317317317304,145.00738437145063L-5759.691691691678,161.09788374898451L-5734.066066066052,118.55772103153004L-5708.440440440427,137.71231847299603L-5682.814814814801,175.7953712430911L-5657.1891891891755,140.95149678341022L-5631.56356356355,127.19015493292295L-5605.937937937923,146.0887528952661L-5580.312312312299,114.80228928596026L-5554.686686686673,162.78730179383638L-5529.061061061047,201.1467512670214L-5503.435435435422,120.37475535460598L-5477.809809809795,120.87709602372743L-5452.184184184171,133.36114627597385L-5426.558558558545,119.49875153716562L-5400.932932932919,192.56752172406806L-5375.307307307294,123.82659298372945L-5349.681681681667,202.2388443819083L-5324.0560560560425,158.49108023193085L-5298.430430430417,179.05901627996425L-5272.804804804791,167.15947265099499L-5247.179179179166,162.3022415684901L-5221.553553553539,152.87170296238634L-5195.9279279279135,170.41533802931323L-5170.302302302289,121.56998916101048L-5144.676676676663,165.26995742908898L-5119.051051051038,172.8814665095719L-5093.425425425411,169.77725067452255L-5067.799799799785,157.89372721645225L-5042.174174174161,178.22102357888065L-5016.548548548535,115.07186268412124L-4990.9229229229095,128.16668669527627L-4965.297297297283,143.99577300199937L-4939.671671671657,182.65724024610645L-4914.046046046033,129.62338128978732L-4888.420420420407,153.57445190779035L-4862.794794794781,201.2616789778168L-4837.169169169155,182.70600933465943L-4811.543543543529,175.2955576834975L-4785.917917917904,127.83374905273669L-4760.292292292279,136.21183036665403L-4734.666666666653,154.98905607989192L-4709.041041041027,144.04501449294116L-4683.415415415401,160.38688575319486L-4657.789789789776,142.5031570673792L-4632.164164164151,180.12158027924312L-4606.538538538525,160.28774893086614L-4580.912912912899,185.715368537652L-4555.287287287273,140.55977738943866L-4529.6616616616475,129.49607091862674L-4504.036036036023,157.28200854349856L-4478.410410410397,158.9493050534222L-4452.784784784771,175.4404470799117L-4427.159159159145,187.42057497488923L-4401.533533533519,206.1904897573537L-4375.907907907894,156.70828823262596L-4350.282282282269,119.84650524904563L-4324.656656656643,128.1065631024388L-4299.031031031017,163.18656423780223L-4273.405405405391,123.63214630818501L-4247.779779779766,172.112974926832L-4222.154154154141,207.75261062325734L-4196.5285285285145,116.70303939589303L-4170.902902902889,139.24117261386414L-4145.277277277263,127.47038798694814L-4119.651651651638,168.61731252724135L-4094.0260260260125,162.97487231479496L-4068.400400400387,178.62850416982133L-4042.7747747747608,104.54857209765828L-4017.149149149135,69.47253733777734L-3991.5235235235095,133.32887280869886L-3965.897897897884,124.9339807349474L-3940.2722722722588,174.85328539076994L-3914.6466466466327,155.57748835015366L-3889.021021021007,142.0778568085417L-3863.3953953953815,182.8152319803014L-3837.769769769756,114.88800142761386L-3812.1441441441307,142.12623982876045L-3786.5185185185046,150.59744990535452L-3760.892892892879,142.59377960876307L-3735.2672672672534,185.74576954677084L-3709.6416416416278,156.4324157118142L-3684.0160160160026,134.18492508732223L-3658.3903903903765,126.08560698878813L-3632.764764764751,143.34607741800855L-3607.1391391391253,138.08722755570574L-3581.5135135134997,150.46944080606L-3555.8878878878736,141.14618239602802L-3530.2622622622484,129.0665201984097L-3504.636636636623,138.03721853881135L-3479.011011010997,141.37459461193376L-3453.3853853853716,93.30307989392205L-3427.7597597597455,138.66811220442708L-3402.1341341341204,127.86891035105958L-3376.5085085084947,186.95178450205842L-3350.882882882869,131.8380291564564L-3325.2572572572435,213.71299021223933L-3299.6316316316174,129.5472217504391L-3274.0060060059923,166.6630564927696L-3248.3803803803667,142.47865336164153L-3222.754754754741,170.9378771476234L-3197.1291291291154,108.71984982130536L-3171.50350350349,119.81877636658973L-3145.877877877864,221.06542140266043L-3120.252252252238,149.29965889213855L-3094.626626626613,132.1138998675456L-3069.0010010009873,169.82753715022292L-3043.3753753753613,202.75529184791785L-3017.749749749736,141.89237917972585L-2992.12412412411,121.87529707628926L-2966.498498498485,124.11970504605526L-2940.8728728728593,142.78462643066752L-2915.247247247233,161.16496339526222L-2889.621621621608,170.45444808622847L-2863.995995995982,129.45577769808153L-2838.3703703703563,155.63302792917946L-2812.744744744731,161.56531948491278L-2787.119119119105,133.90608321794429L-2761.49349349348,153.95271896463728L-2735.867867867854,111.55944961135009L-2710.2422422422283,138.94763088976512L-2684.616616616603,100.69082019412272L-2658.990990990977,199.60668687080636L-2633.3653653653514,211.11425537094917L-2607.739739739726,170.71617052842586L-2582.1141141141,133.3487717752703L-2556.488488488475,127.07310992318617L-2530.862862862849,140.19664810993504L-2505.2372372372233,167.3074071788281L-2479.6116116115977,150.76174691871338L-2453.985985985972,145.80126421148793L-2428.3603603603465,162.5947337170485L-2402.734734734721,213.60933895356956L-2377.1091091090952,164.85129605451232L-2351.4834834834696,158.52780670105335L-2325.857857857844,150.65278888388033L-2300.2322322322184,173.79980344852197L-2274.606606606593,104.48020396029975L-2248.980980980967,199.56174427602787L-2223.3553553553415,165.19277196396112L-2197.729729729716,99.65990354652578L-2172.1041041040903,125.11739593767757L-2146.4784784784647,147.36798841885303L-2120.852852852839,152.22481724707814L-2095.2272272272135,168.42116847851904L-2069.601601601588,195.51714422256163L-2043.975975975962,177.86811400461977L-2018.3503503503364,142.54598237203138L-1992.724724724711,149.10881289492528L-1967.0990990990852,156.04589507208345L-1941.4734734734598,181.70127880633356L-1915.847847847834,167.58092688663655L-1890.2222222222083,206.62968503838263L-1864.596596596583,119.74038530501358L-1838.970970970957,173.5700792464191L-1813.3453453453312,142.94792264644977L-1787.7197197197058,190.51591681634557L-1762.0940940940802,158.38198464493254L-1736.4684684684548,135.43588226700828L-1710.842842842829,199.8032566143366L-1685.2172172172031,162.8199286078558L-1659.5915915915778,179.14740033043591L-1633.9659659659521,170.89927841620025L-1608.3403403403263,177.71677702528615L-1582.714714714701,153.5671908172741L-1557.089089089075,203.74465780304092L-1531.4634634634497,183.0534975439333L-1505.837837837824,164.10488891513845L-1480.2122122121984,128.66165423408938L-1454.5865865865726,201.39958569292685L-1428.960960960947,137.97462920907827L-1403.3353353353216,165.72820779939778L-1377.709709709696,155.60817800234625L-1352.0840840840701,153.69809732161937L-1326.4584584584445,190.04739279004193L-1300.832832832819,102.62885342287737L-1275.2072072071935,158.50221888803114L-1249.5815815815677,138.30322547639054L-1223.955955955942,98.14214988800487L-1198.3303303303164,147.15077030176184L-1172.7047047046908,218.22554444695686L-1147.0790790790652,142.545393973525L-1121.4534534534396,123.764977740027L-1095.827827827814,166.7193774201266L-1070.2022022021883,191.8587448697591L-1044.5765765765627,151.36092871579282L-1018.9509509509371,189.59899727635818L-993.3253253253115,188.7119212778284L-967.6996996996858,141.9469058626869L-942.0740740740601,182.36294643735118L-916.4484484484345,104.70775580580582L-890.822822822809,157.23127691898506L-865.1971971971832,99.85389704025252L-839.5715715715577,149.8584195887487L-813.9459459459321,155.87531183336122L-788.3203203203065,139.51685022718533L-762.6946946946808,167.108604641251L-737.0690690690551,147.6534873571974L-711.4434434434296,123.68532676089922L-685.8178178178039,130.29267617036615L-660.1921921921784,181.36358171788737L-634.5665665665526,196.65031296710018L-608.940940940927,226.76860552953195L-583.3153153153014,137.06677891521227L-557.6896896896758,115.29381652614978L-532.0640640640502,113.29432458158851L-506.43843843842455,133.1701807042739L-480.8128128127989,165.49957458657187L-455.1871871871733,145.5762704493814L-429.56156156154765,148.60001671125423L-403.9359359359221,220.73750480910707L-378.3103103102965,123.79445551210748L-352.6846846846708,121.37123908066147L-327.0590590590452,128.3442639870116L-301.43343343341957,128.9726012267047L-275.80780780779395,102.58775099146447L-250.18218218216833,192.63948473188827L-224.5565565565427,164.7579981934399L-198.93093093091707,124.23273177098386L-173.30530530529145,152.88140165064772L-147.6796796796658,134.20352423594807L-122.0540540540402,140.1045244374003L-96.42842842841456,171.15482459117155L-70.80280280278893,161.78249748339576L-45.17717717716331,169.44356195760636L-19.551551551537685,182.03910894820376L6.0740740740879415,91.0267869328168L31.69969969971357,151.58342395394024L57.32532532533919,115.98233435830025L82.95095095096482,166.78572395154575L108.57657657659044,151.88543721407268L134.20220220221606,107.77109632442205L159.82782782784167,164.7748049725597L185.45345345346732,163.31093473543066L211.07907907909293,165.19102725908968L236.70470470471855,150.31958678195952L262.33033033034417,139.13394483091582L287.9559559559698,174.42681798203822L313.58158158159546,203.13781691520782L339.2072072072211,51.14702102216509L364.8328328328467,140.81644120340763L390.4584584584723,176.59756044360736L416.0840840840979,108.89086138419773L441.7097097097236,167.94473496953958L467.3353353353492,143.9580904922819L492.96096096097483,101.1585602028346L518.5865865866004,211.16301812416333L544.2122122122261,156.68722772457298L569.8378378378517,181.50790075214528L595.4634634634774,110.55781581778155L621.0890890891029,154.45942592661729L646.7147147147286,127.75847679112309L672.3403403403541,126.52377314826464L697.9659659659799,145.97288316126577L723.5915915916055,100.80726482134986L749.2172172172311,111.3664988062267L774.8428428428567,111.48489585815543L800.4684684684823,170.69514132723026L826.094094094108,137.19229672204025L851.7197197197336,201.60791225606812L877.3453453453593,110.5366577614862L902.9709709709848,149.58058483413242L928.5965965966104,185.00685520650484L954.222222222236,153.45533248544925L979.8478478478618,146.28653671783445L1005.4734734734874,196.04247708522448L1031.099099099113,164.72242359068935L1056.7247247247385,177.0569591472993L1082.3503503503644,163.30035918994125L1107.97597597599,185.06048655425985L1133.6016016016154,137.2928057318938L1159.227227227241,138.23737985539125L1184.8528528528668,159.75003564359386L1210.4784784784924,213.31690583642586L1236.104104104118,156.9252767830442L1261.7297297297434,134.91577380588927L1287.3553553553693,138.7845113635793L1312.980980980995,155.33250121740159L1338.6066066066205,157.5586897194182L1364.2322322322461,95.65719665971187L1389.8578578578717,141.15916525750472L1415.4834834834974,121.34120425462342L1441.109109109123,175.1780118005052L1466.7347347347486,234.47382955254113L1492.3603603603742,167.39000939348472L1517.9859859859998,136.5523297725228L1543.6116116116254,215.65853878461633L1569.237237237251,187.31053321073767L1594.8628628628767,101.64037189350165L1620.4884884885023,174.0287510257748L1646.114114114128,138.67416135868444L1671.7397397397538,158.2399133034548L1697.3653653653791,102.09140685015535L1722.9909909910048,92.11589708527944L1748.6166166166306,129.78222968951948L1774.242242242256,149.3055152298689L1799.8678678678818,159.99038369795372L1825.4934934935072,111.3189082027217L1851.1191191191328,150.66274438446916L1876.7447447447587,149.25988328265024L1902.370370370384,143.92796135239752L1927.99599599601,159.46202132540085L1953.6216216216355,183.3925618855885L1979.247247247261,145.85844960050125L2004.8728728728868,185.500118685375L2030.4984984985122,227.61075934532002L2056.124124124138,144.49980968665065L2081.749749749764,187.1247915086679L2107.375375375389,147.94026905876257L2133.001001001015,103.52597821327507L2158.6266266266407,190.3176819746567L2184.252252252266,161.75902005741438L2209.877877877892,157.6221045329032L2235.503503503517,123.81193901982104L2261.129129129143,186.53003628934533L2286.754754754769,127.6739844146226L2312.380380380394,164.61145289826553L2338.00600600602,198.01564265819238L2363.6316316316456,157.80804639738798L2389.2572572572712,122.99552467923533L2414.882882882897,192.23991832589127L2440.508508508522,179.37354086405526L2466.134134134148,148.62523305045215L2491.7597597597737,171.50418036232682L2517.3853853853993,210.6367548917948L2543.011011011025,132.52971374276504L2568.6366366366506,127.60167657466994L2594.262262262276,152.51286428757368L2619.887887887902,126.61651533388508L2645.5135135135274,186.81699126440463L2671.139139139153,190.86541657462237L2696.7647647647786,114.03717463347772L2722.3903903904043,148.0320546648898L2748.01601601603,100.89989681595429L2773.6416416416555,145.65637013039407L2799.267267267281,232.70097972173522L2824.8928928929067,144.55321024366566L2850.5185185185323,129.84040226788366L2876.144144144158,168.34650354607703L2901.7697697697836,155.35502154441798L2927.395395395409,138.63025687660559L2953.021021021035,127.51204367040506L2978.646646646661,127.25943324989649L3004.272272272286,146.87107157156453L3029.8978978979117,120.50781132910745L3055.5235235235373,147.48956246753608L3081.149149149163,164.57171429476875L3106.774774774789,138.5354980171427L3132.400400400414,129.7258192591567L3158.0260260260397,204.57237125734986L3183.651651651666,88.08491420593151L3209.277277277291,111.89864701296852L3234.902902902917,157.3097372143164L3260.5285285285427,153.14378273005158L3286.1541541541683,189.05120466045253L3311.7797797797934,142.3734917628497L3337.405405405419,127.09394346329887L3363.031031031045,102.3575155807722L3388.6566566566707,90.45615177502967L3414.2822822822964,133.26519690671572L3439.9079079079215,218.7910828873117L3465.533533533547,147.7593016117358L3491.159159159173,153.8770328605388L3516.784784784799,193.11544626199807L3542.4104104104244,162.46091559285503L3568.0360360360496,196.1646957454863L3593.661661661675,104.16940278290559L3619.2872872873013,113.86586086969595L3644.912912912927,188.48261126795035L3670.5385385385525,153.67216224493922L3696.164164164178,116.94144938213654L3721.7897897898033,141.0440876674376L3747.4154154154294,201.68872216278564L3773.041041041055,140.53735925104843L3798.6666666666806,139.0773857369127L3824.2922922923062,146.79359953784947L3849.9179179179314,153.835483149587L3875.5435435435575,104.75028808166479L3901.169169169183,129.01042724802227L3926.7947947948087,145.0972150719192L3952.4204204204343,158.3078456965735L3978.0460460460595,145.59801896606444L4003.6716716716855,148.2287509544801L4029.297297297311,131.78800909691114L4054.922922922937,148.6899304534576L4080.5485485485624,142.71250019885238L4106.174174174188,123.59478965196413L4131.799799799814,162.10124426468977L4157.425425425439,145.06556911208574L4183.051051051065,144.07088379560415L4208.6766766766905,207.63392791443744L4234.302302302316,140.18229978952036L4259.927927927942,122.78443401793669L4285.553553553567,151.27542549311033L4311.179179179193,143.35441301008342L4336.804804804819,126.52484207819825L4362.430430430444,102.12481651963412L4388.056056056071,169.745458836864L4413.681681681695,116.74188437423894L4439.307307307321,111.17405466513821L4464.932932932947,109.1598897981203L4490.558558558572,195.18148303823065L4516.184184184199,174.11946071604137L4541.8098098098235,138.41972550622816L4567.435435435449,163.0634741685451L4593.061061061075,133.67608754802762L4618.6866866867,185.04369565215723L4644.312312312327,132.2929363160408L4669.937937937952,143.57589894508888L4695.563563563577,194.25776933614628L4721.189189189203,154.73894363420027L4746.814814814828,168.436027189278L4772.440440440455,202.78688852329228L4798.066066066081,137.24395175354903L4823.691691691705,179.60666401450314L4849.317317317331,132.02479604735848L4874.9429429429565,143.78053227413227L4900.568568568583,164.55029048423813L4926.194194194209,217.43217177892603L4951.819819819833,132.52091428213097L4977.445445445459,207.0904551501813L5003.071071071085,93.05882404542925L5028.696696696711,138.03009139070863L5054.322322322337,152.96208900031155L5079.947947947961,147.92934481361374L5105.573573573587,158.89471879929084L5131.199199199213,98.45848018083169L5156.824824824839,157.31620081735244L5182.450450450465,147.6626584464378L5208.07607607609,134.57860068159502L5233.701701701715,145.87148742016169L5259.327327327341,163.53522230078568L5284.952952952967,160.04623844297333L5310.578578578593,105.99486996345323L5336.2042042042185,169.80558831802188L5361.829829829843,148.62345376523308L5387.455455455469,154.82420926753846L5413.081081081095,144.89184935528655L5438.706706706721,179.69518305470166L5464.332332332347,184.43000628107188L5489.957957957971,103.41147535975043L5515.583583583597,149.6611584723251L5541.209209209223,136.63297087965816L5566.834834834849,215.1449898592624L5592.460460460475,88.33100839469515L5618.0860860861,136.5580780901086L5643.711711711725,134.31344648077817L5669.3373373373515,175.4726365247281L5694.962962962977,161.2295500248506L5720.588588588603,85.93987402509461L5746.214214214228,152.39750880365304L5771.839839839853,153.65746814473738L5797.46546546548,148.70806596667492L5823.091091091105,163.02851808487438L5848.716716716731,166.75566135397847L5874.3423423423565,69.99864225675657L5899.967967967981,152.733584295195L5925.593593593608,193.48352736109342L5951.219219219233,127.08848659103069L5976.844844844859,215.3427877631625L6002.4704704704845,134.99865515123932L6028.09609609611,137.48843202234514L6053.721721721736,129.58122857363728L6079.347347347361,188.19337579220743L6104.972972972987,124.45883102619922L6130.598598598613,175.99870402769727L6156.224224224238,159.53809839675466L6181.849849849864,156.48809226791508L6207.4754754754895,189.01720530964303L6233.101101101115,203.59668085538837L6258.726726726741,149.8447646924051L6284.352352352366,166.33441806110457L6309.977977977992,144.4459811515919L6335.603603603618,108.79089020810005L6361.229229229243,169.12104933060513L6386.854854854869,138.4146634360709L6412.4804804804935,161.5750433925183L6438.10610610612,152.28873042380707L6463.731731731746,134.03735051904337L6489.357357357372,134.98004645810678L6514.982982982997,156.11795158525305L6540.608608608622,101.6844043697871L6566.234234234248,138.2949122976325L6591.859859859874,136.78215410555086L6617.4854854855,154.93040235134194L6643.111111111125,180.27178649434555L6668.73673673675,154.17867282358753L6694.362362362376,145.2060208083189L6719.987987988002,164.9372266307809L6745.613613613628,140.66621501385205L6771.239239239253,185.87302611564962L6796.864864864878,178.77271874099586L6822.490490490504,160.13355491738227L6848.11611611613,147.9320734175238L6873.741741741756,120.00927340130636L6899.367367367381,182.36158557132723L6924.992992993006,192.79525708593667L6950.618618618632,154.75705473212687L6976.244244244258,131.72188652614622L7001.8698698698845,181.1844238546728L7027.495495495509,112.28154757935289L7053.121121121136,146.74566437419665L7078.74674674676,164.91311135330724L7104.372372372386,99.5640252625806L7129.997997998013,109.53293568035227L7155.623623623637,135.6541656939335L7181.249249249264,135.40194321076547L7206.8748748748885,158.38116585490673L7232.500500500514,183.22288002033304L7258.126126126141,100.28521338407887L7283.751751751765,144.31119082418118L7309.377377377392,142.00898379621108L7335.003003003017,107.45684545263413L7360.628628628642,151.34242216327905L7386.254254254269,193.06293769792552L7411.879879879893,187.13287400668085L7437.50550550552,196.25969266187053L7463.131131131145,151.53505462409163L7488.75675675677,105.0054368239714L7514.382382382397,148.14990191533948L7540.0080080080215,154.6885991291511L7565.633633633648,104.88633662061832L7591.259259259273,181.29893249535357L7616.884884884898,173.48048182015003L7642.510510510525,150.62690617760092L7668.13613613615,156.9618122864648L7693.761761761776,133.676862219504L7719.387387387401,155.92244649330365L7745.0130130130265,135.32300522658733L7770.638638638653,167.41228435508148L7796.264264264278,187.55614636577533L7821.889889889904,123.49483506077559L7847.515515515529,141.32330144829527L7873.1411411411555,108.14139754759509L7898.766766766781,123.74027113603984L7924.392392392406,159.92325057678127L7950.018018018032,140.97320696800745L7975.643643643657,199.78774747737722L8001.2692692692835,136.96407647282098L8026.894894894909,184.32025971711778L8052.520520520534,146.56117861917178L8078.14614614616,150.64629408991541L8103.771771771785,148.13878250889488L8129.397397397412,114.9410663488803L8155.023023023037,192.52611104466985L8180.648648648662,140.69061153100373L8206.274274274288,159.2209152366297L8231.899899899914,198.29890751067668L8257.52552552554,104.25616140413896L8283.151151151165,136.59445930008843L8308.776776776791,171.61260234357934L8334.402402402417,128.6649846756584L8360.028028028042,140.91358488492318L8385.653653653668,187.1488565731414L8411.279279279293,157.62652916286376L8436.904904904917,143.38604470433458L8462.530530530545,123.00283627179198L8488.15615615617,148.8375971799831L8513.781781781796,161.96156101256565L8539.407407407421,77.22918141677496L8565.033033033047,181.25000679680286L8590.658658658673,210.21329235991732L8616.284284284298,136.54666696076234L8641.909909909924,153.4669047404101L8667.53553553555,163.43972464356034L8693.161161161175,131.74150745681266L8718.7867867868,143.58091546484906L8744.412412412426,141.10865345930094L8770.038038038052,186.48609671797703L8795.663663663678,151.91207811602735L8821.289289289303,178.85037971536775L8846.914914914929,161.47451248143875L8872.540540540555,193.2937840505156L8898.16616616618,154.9994554925921L8923.791791791806,125.22606054545562L8949.417417417431,116.55202707677788L8975.043043043057,144.59899092731177L9000.668668668683,113.50275000396857L9026.294294294308,126.86934391821666L9051.919919919934,111.65629000116667L9077.54554554556,159.94689845653252L9103.171171171185,161.48342966773862L9128.79679679681,113.64276336862764L9154.422422422436,101.70567660800751L9180.048048048062,146.8054770344513L9205.673673673688,93.55205217452684L9231.299299299313,181.9403030795204L9256.924924924939,144.47306660061219L9282.550550550564,139.8258901860908L9308.17617617619,165.87144240880312L9333.801801801816,120.15537986159231L9359.427427427441,195.40028821837046L9385.053053053067,115.31004822189709L9410.678678678692,138.06672103569952L9436.304304304318,157.28700013034697L9461.929929929944,232.10552466117383L9487.55555555557,104.21630098276484L9513.181181181195,97.67259289997523L9538.80680680682,159.55681546808566L9564.432432432446,147.46510423631878L9590.058058058072,121.92866225689218L9615.683683683697,169.5486986499369L9641.309309309323,192.87326230941886L9666.934934934949,107.78139822845253L9692.560560560574,88.40192467697759L9718.1861861862,144.02442220666924L9743.811811811825,100.29714673034576L9769.437437437451,113.50752881081331L9795.063063063077,105.18658176705878L9820.688688688702,128.2427197854362L9846.314314314328,144.91665746180567L9871.939939939954,139.77473692172225L9897.56556556558,98.52789274031971L9923.191191191205,137.49085700725573L9948.81681681683,138.60666014837633L9974.442442442456,128.02523628068604L10000.068068068082,188.29812340905391L10025.693693693707,155.27482307092916L10051.319319319333,149.1247593406391L10076.944944944958,163.80094138689054L10102.570570570584,157.50959379876477L10128.19619619621,220.80343959222782L10153.821821821835,171.03656457453948L10179.447447447461,132.36554382194345L10205.073073073088,126.92659345868344L10230.698698698712,172.5668978840846L10256.324324324338,163.2478936024881L10281.949949949963,124.9620448285645L10307.575575575589,173.20897926224677L10333.201201201216,165.73182543896198L10358.82682682684,141.0140964463162L10384.452452452466,143.5379140719425L10410.078078078091,137.85102597611544L10435.703703703717,161.02326546895404L10461.329329329345,105.79641619622547L10486.954954954968,135.98047332803927L10512.580580580594,195.81048184228254L10538.20620620622,164.9629025099586L10563.831831831845,195.51392235214615L10589.457457457473,161.99076484403653L10615.083083083096,226.65741471050063L10640.708708708722,163.61073111891054L10666.334334334348,113.5611517392727L10691.959959959973,175.50623743118842L10717.5855855856,151.84813945626328L10743.211211211225,225.55355074850894L10768.83683683685,103.91887959732611L10794.462462462476,126.17970560463354L10820.088088088101,107.23934866960661L10845.713713713729,129.25500104367316L10871.339339339353,110.87646363896084L10896.964964964978,182.31557504104595L10922.590590590604,119.42693369008688L10948.21621621623,103.83854804513322L10973.841841841857,153.0141903085635L10999.46746746748,146.6616502782293L11025.093093093108,147.62080192992948L11050.718718718732,173.06739119766712L11076.344344344358,89.59608082704716L11101.969969969985,129.69172552458963L11127.595595595609,160.19462111853937L11153.221221221236,168.76521591544625L11178.84684684686,157.04691119205273L11204.472472472486,147.24284016484557L11230.098098098113,220.69477710468743L11255.723723723737,149.94554147718375L11281.349349349364,166.80554966376855L11306.974974974988,83.48413402333372L11332.600600600614,154.90191904484178L11358.226226226241,176.04292919487938L11383.851851851865,77.1906610201093L11409.477477477492,115.69928910577809L11435.103103103116,138.7992432790722L11460.728728728742,225.04136824402025L11486.35435435437,138.17113063265256L11511.979979979993,159.59843149373313L11537.60560560562,172.56274951208934L11563.231231231244,156.3035506063454L11588.85685685687,153.7778549779074L11614.482482482497,112.43755167347857L11640.108108108121,211.89217811034612L11665.733733733749,153.89836220562353L11691.359359359372,149.4900815551407L11716.984984984998,131.75518932757416L11742.610610610625,160.37474037702654L11768.23623623625,185.57447948685467L11793.861861861877,149.47222983470647L11819.4874874875,162.5389221606341L11845.113113113128,129.63356149265067L11870.738738738753,139.0795412822688L11896.364364364377,146.28561926239198L11921.989989990005,119.5335134162878L11947.615615615628,153.54790066322005L11973.241241241256,139.94009845686446L11998.866866866882,103.15130756132967L12024.492492492505,122.43527752368041L12050.118118118133,135.95771064940098L12075.743743743757,179.33197765979335L12101.369369369384,167.53994303445631L12126.99499499501,129.3402262312177L12152.620620620633,155.88209131412927L12178.24624624626,136.89641721062875L12203.871871871885,138.34679716204488L12229.497497497512,179.36209219588324L12255.123123123138,184.36994439222656L12280.748748748761,163.2751654350321L12306.374374374389,162.0848896671717L12332.000000000013,85.22269029858381" fill="transparent" stroke="red" stroke-width="2"></path>
<path d="M-13267.999999999987,213.04075177477574L-13242.374374374362,207.51835610197057L-13216.748748748734,140.398969288911L-13191.123123123109,187.85519387607263L-13165.497497497483,144.21086413393076L-13139.87187187186,129.85705650521976L-13114.246246246234,131.28138738223174L-13088.620620620606,144.37549722826125L-13062.99499499498,73.98817501401712L-13037.369369369355,138.01180222694447L-13011.743743743731,162.3079468668175L-12986.118118118105,119.6470689893462L-12960.492492492478,103.74573555465639L-12934.866866866852,142.26776933548754L-12909.241241241227,175.3856212765926L-12883.615615615603,134.48324942794892L-12857.989989989977,136.149673564018L-12832.36436436435,175.8403620981165L-12806.738738738724,106.2297841899518L-12781.113113113099,175.61235115533484L-12755.487487487475,203.9503869743343L-12729.861861861848,156.22663521070277L-12704.236236236222,124.39462437445314L-12678.610610610596,185.0889773539957L-12652.98498498497,169.28189448795288L-12627.359359359347,153.79611652611794L-12601.73373373372,126.14017651329527L-12576.108108108094,112.53161561954522L-12550.482482482468,118.36425360089953L-12524.856856856843,127.293592267646L-12499.231231231219,124.04284656828989L-12473.605605605591,207.30890039648494L-12447.979979979966,153.01699190960497L-12422.35435435434,114.18928403132449L-12396.728728728714,218.01527722837247L-12371.10310310309,160.66562659531505L-12345.477477477463,132.58727352218074L-12319.851851851838,85.15800730718325L-12294.226226226212,149.78452561104083L-12268.600600600586,188.88517645249627L-12242.974974974963,125.38957714849442L-12217.349349349335,147.7343567010408L-12191.72372372371,182.61365484976596L-12166.098098098084,131.5954213733636L-12140.472472472458,201.69624089848529L-12114.846846846833,153.42321373848264L-12089.221221221207,152.28964997918726L-12063.595595595581,123.4239952016633L-12037.969969969956,159.9974966922093L-12012.34434434433,173.1719298009947L-11986.718718718705,163.00831858484312L-11961.093093093079,190.240347230619L-11935.467467467453,145.9773845358222L-11909.841841841828,121.34969739969361L-11884.216216216202,145.74558576677225L-11858.590590590577,185.66956078011248L-11832.964964964951,105.80116230195182L-11807.339339339325,175.3198481599133L-11781.7137137137,123.0519948005753L-11756.088088088074,171.2064137720672L-11730.462462462448,138.52614260921032L-11704.836836836823,136.17277036419054L-11679.211211211197,195.50645437967972L-11653.585585585572,147.87203761200237L-11627.959959959946,122.05835319632476L-11602.33433433432,171.05055714765513L-11576.708708708695,165.14470851921408L-11551.08308308307,95.00250805443488L-11525.457457457444,165.96452670010638L-11499.831831831818,137.9442471528857L-11474.206206206192,187.55685188957716L-11448.580580580567,75.65317079008176L-11422.954954954941,126.80160541687627L-11397.329329329315,131.01215587143707L-11371.70370370369,169.0941665338549L-11346.078078078064,193.16693286407735L-11320.452452452439,194.3222597232055L-11294.826826826813,127.08410296579291L-11269.201201201187,130.78780767057518L-11243.575575575562,129.88467190250773L-11217.949949949936,203.28770455759786L-11192.32432432431,179.3497527298332L-11166.698698698685,162.08627728705636L-11141.07307307306,139.06808102634915L-11115.447447447434,88.80697531276513L-11089.821821821808,151.310521355837L-11064.196196196182,210.5951182755876L-11038.570570570557,131.56067907670354L-11012.944944944931,194.85771957621614L-10987.319319319306,152.7166212628586L-10961.69369369368,144.74634445169343L-10936.068068068054,159.52239416068736L-10910.442442442429,187.17594671027467L-10884.816816816803,165.35029479716033L-10859.191191191177,126.90692114291753L-10833.565565565552,127.33730609288412L-10807.939939939926,165.94873189204603L-10782.3143143143,199.5313741073311L-10756.688688688675,166.4081832576818L-10731.06306306305,169.405915299255L-10705.437437437424,125.04599384590631L-10679.811811811798,142.99856533237494L-10654.186186186173,153.7988800902582L-10628.560560560547,93.17682359945724L-10602.93493493492,146.93236145708875L-10577.309309309296,117.87270971720778L-10551.68368368367,147.8774577452313L-10526.058058058044,155.28635153938615L-10500.432432432419,183.68120353471554L-10474.806806806791,172.72066675318018L-10449.181181181168,124.41771519154531L-10423.555555555542,165.68598274541668L-10397.929929929916,127.26720592029812L-10372.30430430429,172.76851786177238L-10346.678678678663,188.4384546066898L-10321.05305305304,189.3216194566337L-10295.427427427414,135.27397047832883L-10269.801801801788,190.78057410096505L-10244.176176176163,146.51943709766863L-10218.550550550535,175.6373515539974L-10192.924924924911,115.93905559664671L-10167.299299299286,188.90035587538563L-10141.67367367366,145.90566574650833L-10116.048048048035,159.03259684404836L-10090.422422422407,132.41801310431575L-10064.796796796783,149.32902024280412L-10039.171171171158,127.10406375570687L-10013.545545545532,158.7746536610145L-9987.919919919907,122.82885710894087L-9962.29429429428,94.59441543148029L-9936.668668668655,165.97523515760523L-9911.04304304303,140.1606348442798L-9885.417417417404,155.79684147722446L-9859.791791791778,190.81942173089834L-9834.166166166151,135.35331074741615L-9808.540540540527,114.85099581760687L-9782.9149149149,148.6112503069649L-9757.289289289276,148.22570289201383L-9731.66366366365,141.89339510689555L-9706.038038038023,157.90756676631636L-9680.4124124124,146.17045285382895L-9654.786786786772,145.47179549941814L-9629.161161161148,132.37472025693617L-9603.535535535522,168.2306686540689L-9577.909909909895,167.80867855032054L-9552.284284284271,195.4956987993423L-9526.658658658644,173.79545254256982L-9501.03303303302,201.03434640758798L-9475.407407407394,126.83374193044298L-9449.781781781767,155.81811742060003L-9424.156156156143,175.53880588432568L-9398.530530530516,191.32159666650955L-9372.904904904892,156.47501735210233L-9347.279279279266,169.83017090960027L-9321.653653653639,158.08708966548443L-9296.028028028015,157.7302853252814L-9270.402402402387,115.45089103488758L-9244.776776776764,186.60553122357868L-9219.151151151138,169.41308055395305L-9193.52552552551,129.4571158098074L-9167.899899899887,179.04726316755165L-9142.27427427426,180.28746865046725L-9116.648648648636,160.4227836092748L-9091.02302302301,130.99154621319738L-9065.397397397383,146.39230854656716L-9039.771771771759,194.90129201631487L-9014.146146146131,139.36879188494424L-8988.520520520507,195.29981076959928L-8962.89489489488,175.02128684608562L-8937.269269269254,147.79493120919304L-8911.64364364363,222.714752428566L-8886.018018018003,108.35642011388205L-8860.39239239238,107.49701385006131L-8834.766766766752,166.2393014688086L-8809.141141141126,170.88025465149238L-8783.515515515503,169.99683879199395L-8757.889889889875,169.96129858904314L-8732.264264264251,149.25734091913318L-8706.638638638624,134.44496899694437L-8681.013013012998,126.26540124267356L-8655.387387387374,179.94587622697668L-8629.761761761747,83.8070895983123L-8604.136136136123,194.20706373263963L-8578.510510510496,145.7604553582312L-8552.88488488487,156.61556304913674L-8527.259259259246,115.5225588309948L-8501.633633633619,108.3650835344684L-8476.008008007995,124.20816487576468L-8450.382382382368,132.31790356227106L-8424.756756756742,201.45607992102958L-8399.131131131118,152.70699595180224L-8373.50550550549,134.40409324968522L-8347.879879879867,173.96832961220278L-8322.25425425424,122.31097320650673L-8296.628628628614,86.07474992019615L-8271.00300300299,165.18534117902183L-8245.377377377363,104.97576081331442L-8219.751751751739,144.9811558021911L-8194.126126126112,187.14741881987715L-8168.500500500487,126.57965374328049L-8142.87487487486,187.7176686008679L-8117.249249249236,141.02543259559334L-8091.62362362361,112.8086248395744L-8065.9979979979835,104.7085433647687L-8040.372372372359,203.44600615467618L-8014.746746746732,72.07374880160967L-7989.1211211211075,163.19366962724652L-7963.495495495482,171.06619544866174L-7937.869869869855,176.75107307417682L-7912.244244244231,192.99347398236432L-7886.618618618604,186.0940129636693L-7860.992992992979,94.08449497339217L-7835.367367367354,204.06851479085213L-7809.741741741727,202.27791151363505L-7784.116116116103,116.41439544511479L-7758.490490490476,180.0039438884349L-7732.864864864851,154.57478189663166L-7707.239239239226,168.24505494305313L-7681.613613613599,160.38547254437157L-7655.9879879879745,194.4649670313197L-7630.362362362348,187.43033279053208L-7604.736736736723,145.10806494916693L-7579.111111111098,174.69035037315962L-7553.485485485471,121.88703161017577L-7527.859859859846,138.5505496395706L-7502.23423423422,136.79864410201677L-7476.608608608595,177.40503341402155L-7450.98298298297,140.86855993902222L-7425.357357357343,187.90948056042538L-7399.731731731718,128.2412991918099L-7374.106106106092,199.26372599962372L-7348.480480480467,186.20105571652778L-7322.854854854841,170.31419217997743L-7297.229229229215,140.4708811407923L-7271.60360360359,164.5348448903378L-7245.977977977964,68.45715981748444L-7220.352352352339,124.50823114616222L-7194.7267267267125,179.63816874586377L-7169.101101101087,97.49536602445218L-7143.475475475462,117.88191060256483L-7117.849849849836,154.02804709304743L-7092.224224224211,174.1304229735426L-7066.598598598584,166.61382873393637L-7040.972972972959,209.9626842290496L-7015.347347347334,197.8991539862252L-6989.721721721708,156.91903151990093L-6964.096096096083,170.96064502725207L-6938.470470470456,204.59016854070546L-6912.844844844831,130.27320985950757L-6887.219219219206,107.67988000039358L-6861.5935935935795,177.6089897693096L-6835.967967967955,156.65277900788433L-6810.342342342328,130.97986244077012L-6784.716716716703,180.42395032499553L-6759.091091091078,154.46846701485666L-6733.465465465451,177.92279919114895L-6707.839839839827,150.21537249315534L-6682.2142142142,128.4914351088276L-6656.588588588575,161.60564223041422L-6630.96296296295,159.45617215462366L-6605.337337337323,214.9901809015488L-6579.711711711699,130.2023001656116L-6554.086086086072,179.31376373465906L-6528.4604604604465,136.34605108417603L-6502.83483483482,165.78062508034984L-6477.209209209195,175.21425705118855L-6451.5835835835705,167.98733752836952L-6425.957957957944,175.7456965247269L-6400.332332332318,137.2362203996174L-6374.706706706693,184.68311684543693L-6349.081081081067,154.7365236536809L-6323.455455455442,166.12953330157242L-6297.829829829816,177.3656308748868L-6272.20420420419,125.1897423169354L-6246.578578578565,174.00039841995388L-6220.952952952939,167.13655745969973L-6195.3273273273135,180.8832108483117L-6169.701701701688,152.75020227501477L-6144.076076076062,219.99912633054674L-6118.450450450437,217.836633064951L-6092.824824824811,133.81665467537022L-6067.199199199185,154.13427225024293L-6041.57357357356,179.72882218108074L-6015.947947947934,182.5223166234842L-5990.3223223223085,105.95644303923726L-5964.696696696683,137.91028310284597L-5939.071071071057,154.6615871898452L-5913.445445445432,121.31560073149186L-5887.819819819806,122.33008324775184L-5862.19419419418,110.10807657338259L-5836.568568568555,150.64780415141556L-5810.942942942929,143.9237711375262L-5785.317317317304,156.5662709699326L-5759.691691691678,108.68895392089547L-5734.066066066052,99.83577489442092L-5708.440440440427,181.28574138549573L-5682.814814814801,110.71200741808289L-5657.1891891891755,128.17532776886412L-5631.56356356355,124.62016846626071L-5605.937937937923,166.77541830606094L-5580.312312312299,150.05274575921374L-5554.686686686673,193.35611323464224L-5529.061061061047,168.52207199036755L-5503.435435435422,178.60247378563488L-5477.809809809795,199.3529138261274L-5452.184184184171,154.47497707887192L-5426.558558558545,211.86352617207297L-5400.932932932919,136.9573779120367L-5375.307307307294,157.0968827361081L-5349.681681681667,192.49607812619047L-5324.0560560560425,183.04636372464134L-5298.430430430417,102.56961376557913L-5272.804804804791,183.7010984431818L-5247.179179179166,117.75289878781851L-5221.553553553539,182.81570707519066L-5195.9279279279135,171.65230228452023L-5170.302302302289,163.24604622339712L-5144.676676676663,132.57497553660238L-5119.051051051038,104.62582838415383L-5093.425425425411,171.32864578115755L-5067.799799799785,134.80830110465772L-5042.174174174161,103.88161109101455L-5016.548548548535,139.73104052738572L-4990.9229229229095,83.01279159514917L-4965.297297297283,141.6555816781572L-4939.671671671657,163.1656445787737L-4914.046046046033,148.3634431244788L-4888.420420420407,208.68817855525117L-4862.794794794781,145.81327160665282L-4837.169169169155,137.55618937338022L-4811.543543543529,149.96578684418725L-4785.917917917904,144.19836049836857L-4760.292292292279,148.2364219849423L-4734.666666666653,179.26964716653293L-4709.041041041027,201.81252704046494L-4683.415415415401,196.45479996165992L-4657.789789789776,179.41664724374485L-4632.164164164151,133.69350652846035L-4606.538538538525,156.823027667604L-4580.912912912899,151.13508257665762L-4555.287287287273,172.23798054552964L-4529.6616616616475,153.69683420966516L-4504.036036036023,105.20875244950528L-4478.410410410397,140.7687606582654L-4452.784784784771,165.19830475559436L-4427.159159159145,223.02631480127783L-4401.533533533519,131.45027839551838L-4375.907907907894,165.7890162051825L-4350.282282282269,159.84660102696537L-4324.656656656643,204.2655273776805L-4299.031031031017,178.69977822907663L-4273.405405405391,155.29822470311737L-4247.779779779766,144.7941333137226L-4222.154154154141,182.2440568408032L-4196.5285285285145,185.72753423468748L-4170.902902902889,122.24869679040776L-4145.277277277263,179.97754838811684L-4119.651651651638,203.08337411832497L-4094.0260260260125,234.80185049009623L-4068.400400400387,141.09638522039594L-4042.7747747747608,123.7046142222483L-4017.149149149135,154.56585832320553L-3991.5235235235095,94.01062953541518L-3965.897897897884,164.33096848885305L-3940.2722722722588,138.39763937253593L-3914.6466466466327,91.79200882214889L-3889.021021021007,155.5018501293533L-3863.3953953953815,143.25992766368702L-3837.769769769756,187.8371488586429L-3812.1441441441307,127.7404655717672L-3786.5185185185046,134.9473839188939L-3760.892892892879,175.87200494505237L-3735.2672672672534,192.2409396864041L-3709.6416416416278,127.44244331252793L-3684.0160160160026,145.37337890867752L-3658.3903903903765,183.09201354045442L-3632.764764764751,88.03992751850168L-3607.1391391391253,148.60048622387168L-3581.5135135134997,135.24101775414158L-3555.8878878878736,226.3105646934249L-3530.2622622622484,139.88403318120064L-3504.636636636623,145.77913868528327L-3479.011011010997,102.98238260026744L-3453.3853853853716,160.17661188026955L-3427.7597597597455,181.51463126412696L-3402.1341341341204,160.63387338544888L-3376.5085085084947,148.6247346238962L-3350.882882882869,102.36917026437519L-3325.2572572572435,123.78289673956061L-3299.6316316316174,158.05838979634004L-3274.0060060059923,154.8000046462887L-3248.3803803803667,163.73323340711264L-3222.754754754741,216.6875993844022L-3197.1291291291154,191.99610302704372L-3171.50350350349,187.3854375326341L-3145.877877877864,136.27970158444705L-3120.252252252238,181.34377842883L-3094.626626626613,126.14212059173309L-3069.0010010009873,142.80362559604205L-3043.3753753753613,104.77590908156532L-3017.749749749736,155.33943756299956L-2992.12412412411,200.6348453297183L-2966.498498498485,144.40406951308003L-2940.8728728728593,113.27055366010813L-2915.247247247233,65.3293177947971L-2889.621621621608,106.3462576190282L-2863.995995995982,136.47851007769523L-2838.3703703703563,217.0992333137956L-2812.744744744731,123.41360185569417L-2787.119119119105,207.0582301799506L-2761.49349349348,176.0114442213062L-2735.867867867854,160.6936468978908L-2710.2422422422283,129.80648209649115L-2684.616616616603,132.27169292647042L-2658.990990990977,167.7492855475684L-2633.3653653653514,119.12746669594273L-2607.739739739726,161.7196620963739L-2582.1141141141,179.92400511950592L-2556.488488488475,132.81598007194233L-2530.862862862849,115.40588127632702L-2505.2372372372233,166.02891934805095L-2479.6116116115977,157.6964942326788L-2453.985985985972,113.794362144431L-2428.3603603603465,102.1218122160956L-2402.734734734721,100.98404266825628L-2377.1091091090952,185.15923759131877L-2351.4834834834696,162.07182224646215L-2325.857857857844,129.4076271660809L-2300.2322322322184,234.35108600509403L-2274.606606606593,109.09551960220242L-2248.980980980967,185.4563258706305L-2223.3553553553415,156.8567484022152L-2197.729729729716,147.4832386677683L-2172.1041041040903,205.5880335159365L-2146.4784784784647,187.79514656699212L-2120.852852852839,169.06744022306742L-2095.2272272272135,141.77751430359788L-2069.601601601588,144.2509052980341L-2043.975975975962,150.45466329974352L-2018.3503503503364,203.33834780352092L-1992.724724724711,177.85289451484783L-1967.0990990990852,172.5719310706698L-1941.4734734734598,161.07679538112794L-1915.847847847834,211.7434234596231L-1890.2222222222083,156.9516747483183L-1864.596596596583,114.60463506865395L-1838.970970970957,184.9511044288639L-1813.3453453453312,131.40077824561473L-1787.7197197197058,80.48414932685154L-1762.0940940940802,191.97486874797346L-1736.4684684684548,107.80165492694422L-1710.842842842829,93.31263494878007L-1685.2172172172031,132.43148365882993L-1659.5915915915778,122.22804023327603L-1633.9659659659521,193.86637258374304L-1608.3403403403263,170.986433868827L-1582.714714714701,154.7657396682351L-1557.089089089075,165.51378272210715L-1531.4634634634497,132.7490372175028L-1505.837837837824,221.50960782138026L-1480.2122122121984,168.3944399979639L-1454.5865865865726,151.3577232993903L-1428.960960960947,160.25983570861268L-1403.3353353353216,151.42738324506482L-1377.709709709696,174.32584994672072L-1352.0840840840701,196.4638236487856L-1326.4584584584445,178.37492784005224L-1300.832832832819,168.8699464122733L-1275.2072072071935,126.1253897527622L-1249.5815815815677,111.06548800458702L-1223.955955955942,141.95242374769305L-1198.3303303303164,194.4900187334684L-1172.7047047046908,143.48913521103543L-1147.0790790790652,101.03878446970833L-1121.4534534534396,158.19082715394833L-1095.827827827814,154.15162349981486L-1070.2022022021883,159.40550800959502L-1044.5765765765627,160.25280706144883L-1018.9509509509371,130.45291433093487L-993.3253253253115,146.5622370015691L-967.6996996996858,117.99186829928757L-942.0740740740601,171.21768272092038L-916.4484484484345,144.16771943083273L-890.822822822809,159.79889462741016L-865.1971971971832,119.42484941894591L-839.5715715715577,159.06235588865533L-813.9459459459321,202.1927906385115L-788.3203203203065,153.89177769895414L-762.6946946946808,175.10152329098594L-737.0690690690551,180.5263995208944L-711.4434434434296,154.32488436259518L-685.8178178178039,154.93279914612359L-660.1921921921784,115.87636950729265L-634.5665665665526,196.55982533365545L-608.940940940927,100.28055193099817L-583.3153153153014,105.428450755109L-557.6896896896758,145.90371763726577L-532.0640640640502,162.1535765134563L-506.43843843842455,205.3791836526444L-480.8128128127989,161.6933545096685L-455.1871871871733,231.49791416874L-429.56156156154765,171.9878384516755L-403.9359359359221,115.81872236169337L-378.3103103102965,104.56961580268597L-352.6846846846708,177.6150480060682L-327.0590590590452,139.97689348326185L-301.43343343341957,121.72068045362067L-275.80780780779395,125.86193875721506L-250.18218218216833,141.12517421814766L-224.5565565565427,170.33219698401152L-198.93093093091707,135.60896242364936L-173.30530530529145,157.6189191838874L-147.6796796796658,128.20454552931662L-122.0540540540402,156.5480830491098L-96.42842842841456,130.57709459426923L-70.80280280278893,222.04591749422735L-45.17717717716331,139.89146596953051L-19.551551551537685,126.51086277611438L6.0740740740879415,124.27168972753589L31.69969969971357,163.99258316730905L57.32532532533919,189.537041558493L82.95095095096482,143.54963404538637L108.57657657659044,137.4662288610828L134.20220220221606,151.75815829755103L159.82782782784167,134.97892044533953L185.45345345346732,141.24339596781599L211.07907907909293,147.27092205058796L236.70470470471855,162.4679655583199L262.33033033034417,183.1301435029416L287.9559559559698,161.0693344097274L313.58158158159546,143.75214659896136L339.2072072072211,113.25932952273644L364.8328328328467,119.69802940627218L390.4584584584723,140.8023959924938L416.0840840840979,94.16796171740359L441.7097097097236,152.32166202826164L467.3353353353492,144.00865043604963L492.96096096097483,143.16419059552834L518.5865865866004,180.26098280927255L544.2122122122261,141.91005254453188L569.8378378378517,123.50348082640517L595.4634634634774,140.0050195674274L621.0890890891029,148.98635767882087L646.7147147147286,87.48334185733225L672.3403403403541,136.8368488679097L697.9659659659799,137.07650892144815L723.5915915916055,178.56130256566286L749.2172172172311,151.10570750993344L774.8428428428567,172.5649261279728L800.4684684684823,187.09757675537867L826.094094094108,191.17646052952637L851.7197197197336,132.6527661339608L877.3453453453593,149.3430340609959L902.9709709709848,114.85111969610998L928.5965965966104,125.6861388099756L954.222222222236,106.97515403216283L979.8478478478618,174.0479371814743L1005.4734734734874,195.9566864282904L1031.099099099113,185.5651622870265L1056.7247247247385,205.46513062406518L1082.3503503503644,182.81742397420751L1107.97597597599,141.23348664008773L1133.6016016016154,154.73979449276686L1159.227227227241,140.44156395708345L1184.8528528528668,84.88620372500307L1210.4784784784924,177.7216990470452L1236.104104104118,124.70113937933823L1261.7297297297434,167.67269029229735L1287.3553553553693,184.28246233635383L1312.980980980995,137.17635478992736L1338.6066066066205,133.1210306269193L1364.2322322322461,136.73400006781364L1389.8578578578717,165.37742015441736L1415.4834834834974,165.2225310729657L1441.109109109123,206.02388254157557L1466.7347347347486,201.8740276100462L1492.3603603603742,151.45214963624232L1517.9859859859998,143.79291805384125L1543.6116116116254,164.56205257675063L1569.237237237251,157.35962898040214L1594.8628628628767,156.86105041471362L1620.4884884885023,114.4362963279232L1646.114114114128,154.66619116638833L1671.7397397397538,182.01593687469312L1697.3653653653791,136.38491204940985L1722.9909909910048,121.18646253230935L1748.6166166166306,190.64636833608157L1774.242242242256,138.30842208954138L1799.8678678678818,158.41814915274304L1825.4934934935072,110.88646180128407L1851.1191191191328,172.58777803218686L1876.7447447447587,115.85277236240591L1902.370370370384,141.09968873182856L1927.99599599601,156.11258546017578L1953.6216216216355,103.78283123039898L1979.247247247261,161.30837105555253L2004.8728728728868,152.03338371590033L2030.4984984985122,126.06305552445002L2056.124124124138,130.3876586194881L2081.749749749764,155.73129289643282L2107.375375375389,155.58576624631186L2133.001001001015,167.4376526499324L2158.6266266266407,184.27220614994832L2184.252252252266,138.96237134914327L2209.877877877892,143.08885073500238L2235.503503503517,181.3384202189012L2261.129129129143,192.25116391575958L2286.754754754769,151.69418347307686L2312.380380380394,159.74925977094412L2338.00600600602,111.81319649257645L2363.6316316316456,148.62560321369648L2389.2572572572712,145.4033924311172L2414.882882882897,134.51628565147908L2440.508508508522,119.6499050877255L2466.134134134148,135.3694314068834L2491.7597597597737,99.07113183285549L2517.3853853853993,148.57739092087678L2543.011011011025,136.25898630826993L2568.6366366366506,164.990516274134L2594.262262262276,177.8729413253859L2619.887887887902,179.3562415979232L2645.5135135135274,158.76738004480615L2671.139139139153,169.23029904740343L2696.7647647647786,145.8580661224355L2722.3903903904043,137.2901596790182L2748.01601601603,195.1267029636L2773.6416416416555,131.19780766957328L2799.267267267281,107.00430868642246L2824.8928928929067,182.97354574391474L2850.5185185185323,148.445820638728L2876.144144144158,100.5614899999432L2901.7697697697836,111.8190680340191L2927.395395395409,140.87072834493893L2953.021021021035,192.87882776341462L2978.646646646661,193.06596866419983L3004.272272272286,148.7281790695724L3029.8978978979117,191.37216634731152L3055.5235235235373,102.93274631996735L3081.149149149163,142.25705121450113L3106.774774774789,94.0443671446215L3132.400400400414,90.92483033110489L3158.0260260260397,160.8321310224147L3183.651651651666,131.8597631695192L3209.277277277291,143.6518083463687L3234.902902902917,158.2576793269303L3260.5285285285427,162.42686308970136L3286.1541541541683,156.63437269750577L3311.7797797797934,134.99840158927805L3337.405405405419,183.0371935986616L3363.031031031045,164.54474576190486L3388.6566566566707,146.50455448958292L3414.2822822822964,213.02771303647518L3439.9079079079215,122.92131710635687L3465.533533533547,146.82141266271086L3491.159159159173,191.46251727572476L3516.784784784799,180.74312928734412L3542.4104104104244,147.22794633719622L3568.0360360360496,130.27733291058848L3593.661661661675,202.14688788845865L3619.2872872873013,166.7651206460587L3644.912912912927,183.24179022248546L3670.5385385385525,153.204177791767L3696.164164164178,137.496036562979L3721.7897897898033,188.0355811389924L3747.4154154154294,142.7415416083134L3773.041041041055,127.47985627183635L3798.6666666666806,101.29372287722319L3824.2922922923062,178.6670679133708L3849.9179179179314,157.67605118871768L3875.5435435435575,161.30028310751175L3901.169169169183,148.13978752540967L3926.7947947948087,134.8852185299259L3952.4204204204343,112.5920431727009L3978.0460460460595,187.4280913300055L4003.6716716716855,129.52343025264585L4029.297297297311,129.1734285998487L4054.922922922937,161.6842909234462L4080.5485485485624,203.74164684835455L4106.174174174188,69.80343206627808L4131.799799799814,182.48446331550298L4157.425425425439,142.69023982388634L4183.051051051065,92.37844518796464L4208.6766766766905,135.77418053829317L4234.302302302316,135.1671458386706L4259.927927927942,161.60963507995376L4285.553553553567,102.1241565313421L4311.179179179193,165.48866000456013L4336.804804804819,148.26577468736204L4362.430430430444,118.54494748670305L4388.056056056071,146.5250652908886L4413.681681681695,158.53707845549837L4439.307307307321,163.04319905943223L4464.932932932947,114.42528269010828L4490.558558558572,86.8097252324896L4516.184184184199,127.13669662040525L4541.8098098098235,130.57566402334598L4567.435435435449,171.91709983622655L4593.061061061075,137.64803590142265L4618.6866866867,172.51289379417523L4644.312312312327,174.54717481854365L4669.937937937952,176.5157558135822L4695.563563563577,151.18393183824992L4721.189189189203,172.31907428009637L4746.814814814828,207.7236692160386L4772.440440440455,151.97155907878872L4798.066066066081,222.9373587402181L4823.691691691705,168.3172084389877L4849.317317317331,149.7438453129644L4874.9429429429565,184.33681066571222L4900.568568568583,162.76567844827085L4926.194194194209,202.23908665310162L4951.819819819833,157.5478940914754L4977.445445445459,166.8926799939309L5003.071071071085,181.89447403916415L5028.696696696711,126.67199595143839L5054.322322322337,180.82090651441902L5079.947947947961,150.61372440382752L5105.573573573587,145.75634344378565L5131.199199199213,140.58509882704033L5156.824824824839,149.58461515171717L5182.450450450465,169.06854545975213L5208.07607607609,148.23498147376168L5233.701701701715,130.2589668752486L5259.327327327341,145.24470918779616L5284.952952952967,127.71765320501953L5310.578578578593,161.88663069818205L5336.2042042042185,150.17259902754714L5361.829829829843,197.86643917658125L5387.455455455469,103.61328321235109L5413.081081081095,174.9650192638733L5438.706706706721,125.68735185482183L5464.332332332347,107.66244988753269L5489.957957957971,184.40479002269353L5515.583583583597,180.58236384302364L5541.209209209223,142.73573048319244L5566.834834834849,162.2689260134566L5592.460460460475,147.18927975698747L5618.0860860861,195.65145794071006L5643.711711711725,162.2219004906137L5669.3373373373515,109.19427221459446L5694.962962962977,175.9759614854187L5720.588588588603,106.14153578300088L5746.214214214228,116.80633842695843L5771.839839839853,146.2736566688483L5797.46546546548,133.84121137807023L5823.091091091105,159.71813543449923L5848.716716716731,154.3160420114264L5874.3423423423565,157.38456099605912L5899.967967967981,228.55888115243863L5925.593593593608,176.46162886069393L5951.219219219233,136.38736040170645L5976.844844844859,144.8365541127668L6002.4704704704845,148.01656353401233L6028.09609609611,159.78860720632397L6053.721721721736,102.92733428401027L6079.347347347361,178.29361531831944L6104.972972972987,179.38726016637094L6130.598598598613,119.05618395666983L6156.224224224238,164.18217451766498L6181.849849849864,134.55359305928582L6207.4754754754895,118.26672809003668L6233.101101101115,116.27786873196254L6258.726726726741,140.39052354200288L6284.352352352366,143.38503590862882L6309.977977977992,186.3569810289528L6335.603603603618,154.3682786473123L6361.229229229243,197.48883768540907L6386.854854854869,133.83124554223986L6412.4804804804935,170.1104232990983L6438.10610610612,103.45222629999742L6463.731731731746,169.29457935648801L6489.357357357372,167.44270471250582L6514.982982982997,140.6756433343418L6540.608608608622,153.81394727709434L6566.234234234248,128.84103690886317L6591.859859859874,165.48675098221457L6617.4854854855,93.94203592948901L6643.111111111125,173.75816220720515L6668.73673673675,170.5660643744815L6694.362362362376,163.40744402698758L6719.987987988002,192.19367542345907L6745.613613613628,139.62033781531522L6771.239239239253,138.87779143219942L6796.864864864878,122.51475731243568L6822.490490490504,128.8668707254643L6848.11611611613,122.06627478940456L6873.741741741756,117.17078392660909L6899.367367367381,191.38183856255506L6924.992992993006,175.07156474481675L6950.618618618632,131.44922145514448L6976.244244244258,127.70098041353862L7001.8698698698845,129.39903122461115L7027.495495495509,148.22601950564467L7053.121121121136,122.54690548039713L7078.74674674676,185.32847274881186L7104.372372372386,157.0057747720818L7129.997997998013,102.4420158701837L7155.623623623637,126.27376485497919L7181.249249249264,108.52507722227867L7206.8748748748885,169.15096102416123L7232.500500500514,231.33053450746445L7258.126126126141,153.68516628351875L7283.751751751765,93.75447357623457L7309.377377377392,103.87334995093323L7335.003003003017,159.9285039275981L7360.628628628642,227.08315456742508L7386.254254254269,116.48092685752931L7411.879879879893,95.37291320517542L7437.50550550552,141.47196750693897L7463.131131131145,155.08949403969234L7488.75675675677,187.19837576896708L7514.382382382397,151.41760461120904L7540.0080080080215,168.28714116955334L7565.633633633648,142.21663570146922L7591.259259259273,162.14459842092705L7616.884884884898,154.42682694027283L7642.510510510525,182.31442618504838L7668.13613613615,162.08083650596288L7693.761761761776,154.96695115461603L7719.387387387401,129.59089509872337L7745.0130130130265,166.01654391936722L7770.638638638653,161.90583851029214L7796.264264264278,206.56730470861157L7821.889889889904,86.24280189494695L7847.515515515529,153.29673051172037L7873.1411411411555,184.92600376688083L7898.766766766781,152.72840832367672L7924.392392392406,155.93757184223773L7950.018018018032,93.36967546899928L7975.643643643657,130.4177190371928L8001.2692692692835,161.0311725916341L8026.894894894909,159.74803798463472L8052.520520520534,99.58538276877647L8078.14614614616,122.26202067085688L8103.771771771785,118.87351594769072L8129.397397397412,149.88865004272012L8155.023023023037,123.29534463729826L8180.648648648662,181.09606842611905L8206.274274274288,124.27720795226176L8231.899899899914,174.56547346155435L8257.52552552554,119.39791774294585L8283.151151151165,100.90697543885955L8308.776776776791,119.71310817682183L8334.402402402417,188.54821324173216L8360.028028028042,134.72101983965783L8385.653653653668,146.71875001590777L8411.279279279293,162.39136002469994L8436.904904904917,150.50772794836672L8462.530530530545,125.08382833171473L8488.15615615617,201.49181844520672L8513.781781781796,172.4017683390715L8539.407407407421,160.32794269330623L8565.033033033047,145.36729100845753L8590.658658658673,124.21201970578812L8616.284284284298,188.9606404096517L8641.909909909924,131.71331002323424L8667.53553553555,192.85601420442504L8693.161161161175,144.27579559793898L8718.7867867868,65.09201782155964L8744.412412412426,143.20613195643676L8770.038038038052,149.50585866401667L8795.663663663678,113.03312881235738L8821.289289289303,138.44936573437246L8846.914914914929,218.90069313354695L8872.540540540555,182.9955473149468L8898.16616616618,160.7506752676164L8923.791791791806,175.04998141292043L8949.417417417431,192.7838159882357L8975.043043043057,171.7092095020121L9000.668668668683,81.80374143486327L9026.294294294308,234.8890885884386L9051.919919919934,107.472871473657L9077.54554554556,172.30901984597486L9103.171171171185,126.23607674817853L9128.79679679681,123.77792176809967L9154.422422422436,118.85507505821897L9180.048048048062,146.3864793218828L9205.673673673688,106.28743609815015L9231.299299299313,113.60139020297868L9256.924924924939,86.67732590327262L9282.550550550564,128.1667534718258L9308.17617617619,72.8944445502959L9333.801801801816,187.96074247570436L9359.427427427441,110.00304871697685L9385.053053053067,166.79532953153648L9410.678678678692,127.63977533249741L9436.304304304318,123.34057201911318L9461.929929929944,154.57822704751305L9487.55555555557,114.49160315527934L9513.181181181195,125.28256443747753L9538.80680680682,171.02217692696462L9564.432432432446,138.9530429769186L9590.058058058072,149.33786225195615L9615.683683683697,147.09086221533215L9641.309309309323,124.98512129263685L9666.934934934949,146.17806100964674L9692.560560560574,174.85905693230762L9718.1861861862,151.74207133725483L9743.811811811825,183.52903818859528L9769.437437437451,138.93401876052204L9795.063063063077,170.23443972060625L9820.688688688702,95.08780836908397L9846.314314314328,135.83442279404215L9871.939939939954,160.05616317891239L9897.56556556558,133.11144063431198L9923.191191191205,228.11005526820708L9948.81681681683,165.31306038508646L9974.442442442456,137.08324918046395L10000.068068068082,164.56434432664872L10025.693693693707,182.32670240741442L10051.319319319333,167.0183027201591L10076.944944944958,172.22104663987074L10102.570570570584,125.70110653803076L10128.19619619621,138.50505910784818L10153.821821821835,184.60171336850672L10179.447447447461,111.86577865436678L10205.073073073088,156.23363078986364L10230.698698698712,146.23916833176264L10256.324324324338,170.1964615953388L10281.949949949963,136.0499380554498L10307.575575575589,152.18378553491863L10333.201201201216,156.42296732693566L10358.82682682684,135.83298036416556L10384.452452452466,138.92920684167075L10410.078078078091,143.3998169859346L10435.703703703717,125.26877524351292L10461.329329329345,167.3714408268506L10486.954954954968,150.89099686481399L10512.580580580594,137.95502675799176L10538.20620620622,115.71843361631966L10563.831831831845,129.74501799920557L10589.457457457473,113.5459959097187L10615.083083083096,160.4108759274955L10640.708708708722,183.2825979165287L10666.334334334348,148.61668544485386L10691.959959959973,154.95071096322246L10717.5855855856,183.31970394873215L10743.211211211225,177.37976669885467L10768.83683683685,163.47477397548408L10794.462462462476,177.32404154100988L10820.088088088101,170.26842264288211L10845.713713713729,99.30886003657926L10871.339339339353,127.85213293548517L10896.964964964978,180.25308461998827L10922.590590590604,199.99600779162733L10948.21621621623,221.37428230592388L10973.841841841857,170.9767588762161L10999.46746746748,165.5108722265466L11025.093093093108,168.28581388969883L11050.718718718732,111.73296407529904L11076.344344344358,134.42095478086853L11101.969969969985,135.1226972123203L11127.595595595609,127.67391657543484L11153.221221221236,134.55802962164194L11178.84684684686,186.9427736759576L11204.472472472486,161.35719120139834L11230.098098098113,92.8132865186991L11255.723723723737,191.53694386847016L11281.349349349364,126.38351578263507L11306.974974974988,129.53666382786636L11332.600600600614,142.40758802009645L11358.226226226241,171.98971287683767L11383.851851851865,164.35167155760618L11409.477477477492,146.5633449982361L11435.103103103116,143.89171310698717L11460.728728728742,186.29600816658387L11486.35435435437,118.63378139360759L11511.979979979993,125.47355896246597L11537.60560560562,161.3657357897209L11563.231231231244,124.99181980403893L11588.85685685687,178.39058779685368L11614.482482482497,180.7062564366534L11640.108108108121,170.81054186348882L11665.733733733749,170.2544830044589L11691.359359359372,114.38490867759319L11716.984984984998,191.69622021969442L11742.610610610625,201.17780962753557L11768.23623623625,138.03506852159975L11793.861861861877,147.19251580366557L11819.4874874875,111.22988833967074L11845.113113113128,172.18078282460885L11870.738738738753,89.9731815407896L11896.364364364377,139.5396837159325L11921.989989990005,177.78915999653668L11947.615615615628,136.14254285580526L11973.241241241256,183.01152422393145L11998.866866866882,110.67106501415935L12024.492492492505,125.85871653950406L12050.118118118133,164.92433292244723L12075.743743743757,93.67566414281004L12101.369369369384,112.95277425540422L12126.99499499501,134.22964485848365L12152.620620620633,152.56643565525414L12178.24624624626,155.6179571298593L12203.871871871885,81.5344746941694L12229.497497497512,173.74366289957175L12255.123123123138,151.90737234741482L12280.748748748761,121.61125362221398L12306.374374374389,126.21551979176496L12332.000000000013,124.13996658367915" fill="transparent" stroke="green" stroke-width="2"></path></svg>
