<svg width="800" height="300" xmlns="http://www.w3.org/2000/svg" viewBox="0 0 800 300">
  <path
    d="M0,146.44122686154762L0.8008008008008007,176.48664239351797L1.6016016016016015,154.45154741842475L2.4024024024024024,224.53375971146713L3.203203203203203,131.13633853305654L4.004004004004004,121.59977399114837L4.804804804804805,81.89961268984104L5.605605605605605,202.82211606901717L6.406406406406406,140.33044337622664L7.207207207207207,123.4830594903577L8.008008008008009,117.99746727501912L8.80880880880881,95.65952687862298L9.60960960960961,122.71132428631611L10.41041041041041,159.8837477824318L11.21121121121121,123.9733116090984L12.012012012012011,191.28189900750272L12.812812812812812,194.98079178270365L13.613613613613614,162.7025705759268L14.414414414414415,164.54224601140086L15.215215215215217,108.38590889832642L16.016016016016017,141.63554517135793L16.816816816816818,95.05901392251926L17.61761761761762,162.7905061901764L18.41841841841842,148.93970210545473L19.21921921921922,188.5430161804805L20.02002002002002,179.42874918156684L20.82082082082082,127.57725068938737L21.62162162162162,133.68776740349588L22.42242242242242,156.8487331484862L23.223223223223226,122.31675672596992L24.024024024024023,231.9787695796545L24.824824824824827,141.31377903997384L25.625625625625624,155.41897207769935L26.426426426426424,164.739087721487L27.227227227227228,193.15051086271984L28.02802802802803,164.50491169407437L28.82882882882883,150.14018627786737L29.629629629629626,97.4861788668548L30.430430430430434,155.15994413972555L31.23123123123123,134.2365073582175L32.032032032032035,209.20144840172253L32.83283283283283,131.88527059008317L33.633633633633636,166.13086648368972L34.434434434434436,147.18257747435925L35.23523523523524,126.57500172690735L36.03603603603604,175.46920111661902L36.83683683683684,116.39286112597941L37.63763763763764,154.69674603604244L38.43843843843844,133.5090628794905L39.23923923923924,151.43203967876283L40.04004004004004,136.85488797751407L40.84084084084084,135.0626529023631L41.64164164164164,166.16514402551218L42.44244244244244,157.6767934216869L43.24324324324324,152.50241298959682L44.04404404404404,173.27344326806855L44.84484484484484,115.72661058773681L45.645645645645644,122.85359097478539L46.44644644644645,149.61352800982598L47.247247247247245,202.31301028088268L48.048048048048045,140.39554545651265L48.848848848848846,101.6243461712561L49.64964964964965,117.29521579986954L50.45045045045045,149.11702463137522L51.25125125125125,115.14355126823139L52.052052052052055,191.14075872442595L52.85285285285285,164.86713910352086L53.653653653653656,106.29591687335076L54.454454454454456,164.88803516209836L55.25525525525525,151.0642801508101L56.05605605605606,133.70967463549343L56.85685685685685,124.24041537466996L57.65765765765766,145.06560874872935L58.45845845845846,162.105011358992L59.25925925925925,145.59684964130946L60.06006006006006,119.29726198416321L60.86086086086087,134.31837959085297L61.66166166166166,107.92196603085989L62.46246246246246,170.606647169594L63.263263263263255,118.77548333048063L64.06406406406407,141.82310455399315L64.86486486486487,114.07107333067526L65.66566566566566,208.9768363488229L66.46646646646647,188.97593311293454L67.26726726726727,147.76458499182453L68.06806806806807,129.2527836128733L68.86886886886887,155.13749559044538L69.66966966966966,165.2865605509364L70.47047047047047,139.02319879306987L71.27127127127127,146.50452929192014L72.07207207207207,166.81697178683663L72.87287287287288,148.73804154234767L73.67367367367368,137.993585787076L74.47447447447448,118.69953409561873L75.27527527527528,106.39370496674823L76.07607607607608,163.06540738348312L76.87687687687688,177.4938566586099L77.67767767767768,144.65882748311418L78.47847847847848,136.08707351603573L79.27927927927928,180.0374703736539L80.08008008008008,144.77319829568717L80.88088088088088,192.55478436161633L81.68168168168168,181.30927637249923L82.48248248248248,143.7982340562742L83.28328328328328,163.08657546080119L84.08408408408408,199.71628358684126L84.88488488488488,135.38204030584342L85.68568568568568,119.07652950208097L86.48648648648648,103.0821245160684L87.28728728728728,128.00335664941744L88.08808808808809,176.0595997418169L88.88888888888889,155.9946458652151L89.68968968968969,165.61039274597215L90.49049049049049,183.02103867390335L91.29129129129129,184.15367610166146L92.09209209209209,167.90796737198974L92.8928928928929,122.24726785355199L93.69369369369369,174.48055574743313L94.49449449449449,142.9902841973746L95.29529529529529,125.10162188814712L96.09609609609609,149.8707510241354L96.8968968968969,130.14378816530413L97.69769769769769,103.35662907203059L98.49849849849849,128.14998347054888L99.2992992992993,150.37102606992855L100.10010010010011,155.47737496274783L100.9009009009009,197.73624041793238L101.7017017017017,127.96819001337295L102.5025025025025,154.06964456997596L103.30330330330331,159.635353075386L104.10410410410411,160.37585232794305L104.9049049049049,144.04154498684005L105.7057057057057,90.8681699229522L106.5065065065065,137.81101217043127L107.30730730730731,152.57321489461552L108.10810810810811,200.38422906372665L108.90890890890891,161.80574062141147L109.7097097097097,133.76777962626122L110.5105105105105,96.65416183418557L111.31131131131131,136.41298417080517L112.11211211211211,121.87409659237602L112.91291291291292,173.82589115392773L113.7137137137137,142.56798375652488L114.5145145145145,145.01133438539352L115.31531531531532,181.13905275783625L116.11611611611612,156.746045583257L116.91691691691692,174.2989414110958L117.7177177177177,191.23753996829316L118.5185185185185,137.63843556796976L119.31931931931932,144.95797502128292L120.12012012012012,177.12805487776487L120.92092092092092,129.1192905528452L121.72172172172174,122.16779415289133L122.52252252252251,161.55810654777844L123.32332332332332,133.46917011408678L124.12412412412412,199.34138468384583L124.92492492492492,119.27980646682968L125.72572572572574,163.81535491256255L126.52652652652651,217.71976106630768L127.32732732732732,130.8945680878052L128.12812812812814,107.02946408343425L128.92892892892894,147.70547260490738L129.72972972972974,150.6502517616973L130.5305305305305,123.27585049849284L131.3313313313313,138.15946332930855L132.13213213213214,178.12890629846692L132.93293293293294,145.67958964578165L133.73373373373374,125.69878687231443L134.53453453453454,102.05241558693672L135.33533533533532,123.05261982436735L136.13613613613614,153.12349791345721L136.93693693693695,137.10109754166797L137.73773773773775,142.58492936232216L138.53853853853855,159.63226210930554L139.33933933933932,135.48244835253547L140.14014014014015,217.38413126840504L140.94094094094095,144.4757218793982L141.74174174174175,134.73284138995473L142.54254254254255,127.22178701197424L143.34334334334332,102.04867519278201L144.14414414414415,158.87885152389285L144.94494494494495,157.27613938787442L145.74574574574575,191.2625118837061L146.54654654654655,141.3061745778907L147.34734734734735,196.56377442354608L148.14814814814815,160.48293829014503L148.94894894894895,168.77212224282536L149.74974974974975,140.5839335713588L150.55055055055055,199.86067170369165L151.35135135135135,203.69499172834006L152.15215215215215,119.30847477847936L152.95295295295296,130.1257933250172L153.75375375375376,114.64269481924217L154.55455455455456,178.8530735987047L155.35535535535536,172.17958330446055L156.15615615615616,160.44392393698794L156.95695695695696,146.1799225528028L157.75775775775776,123.85906802758603L158.55855855855856,126.67745572551635L159.35935935935936,105.01580557733936L160.16016016016016,161.47832025350493L160.96096096096096,181.3782590842304L161.76176176176176,105.53837084804641L162.56256256256256,122.98864295513889L163.36336336336336,138.6235073146587L164.16416416416416,89.77085867991852L164.96496496496496,149.68794456872624L165.76576576576576,158.24758369121164L166.56656656656656,146.0212842481566L167.36736736736736,122.36720695369414L168.16816816816817,191.744172415333L168.96896896896897,146.78483075961535L169.76976976976977,143.78519748980622L170.57057057057057,113.93794639146563L171.37137137137137,173.94036514136664L172.17217217217217,156.0367779758582L172.97297297297297,117.51469529403985L173.77377377377377,133.8403860004733L174.57457457457457,170.26043732371403L175.37537537537537,177.86205230655824L176.17617617617617,160.68801678728394L176.97697697697697,145.94734706469515L177.77777777777777,104.7381684442604L178.57857857857857,168.77649413118476L179.37937937937937,136.38709731973054L180.18018018018017,200.20586049136818L180.98098098098097,154.74167644735152L181.7817817817818,95.6514161839286L182.58258258258257,154.97462763895933L183.38338338338338,151.7617869841195L184.18418418418418,185.61144106180052L184.98498498498498,119.89991198802218L185.7857857857858,154.99877549346397L186.58658658658658,142.5944039436419L187.38738738738738,133.62226384352024L188.18818818818818,172.92558490173943L188.98898898898898,120.89215271700945L189.7897897897898,120.24417951915046L190.59059059059058,118.6817515695069L191.39139139139138,114.32444302245369L192.19219219219218,119.73449519741123L192.99299299299298,153.12310863061887L193.7937937937938,176.7313435127627L194.5945945945946,100.10386979873559L195.39539539539538,133.1155924418208L196.19619619619618,185.77418906426996L196.99699699699698,115.04538668871447L197.7977977977978,112.89576187751564L198.5985985985986,200.87775688846784L199.39939939939939,128.8048662002831L200.20020020020021,144.23886247354517L201.001001001001,208.2875462631944L201.8018018018018,151.4379583266975L202.60260260260262,200.15165420921943L203.4034034034034,181.191169241918L204.20420420420422,196.8474721024681L205.005005005005,127.89442777155381L205.8058058058058,123.88563373768088L206.60660660660662,176.94352054274924L207.4074074074074,162.4018475148502L208.20820820820822,186.19944628510078L209.009009009009,171.6594654357108L209.8098098098098,161.84748910434703L210.61061061061062,137.04066880832423L211.4114114114114,138.88561554679518L212.21221221221222,113.38053916393542L213.013013013013,152.45738061615072L213.81381381381382,171.14634109979383L214.61461461461462,160.7268565366271L215.4154154154154,167.89432427514228L216.21621621621622,130.1061314410246L217.017017017017,173.25699218968163L217.81781781781783,78.091766580186L218.61861861861863,139.8241968131721L219.4194194194194,147.33504637038706L220.22022022022023,129.5848585929624L221.021021021021,177.24180956162337L221.82182182182183,215.71952087716573L222.62262262262263,99.94850580899677L223.4234234234234,148.29981863811602L224.22422422422423,104.04579298935354L225.025025025025,154.30744582432L225.82582582582583,156.40537271291336L226.62662662662663,122.05213082812875L227.4274274274274,101.00414528421055L228.22822822822823,124.74813920902923L229.029029029029,136.5854420654551L229.82982982982983,173.58275594644837L230.63063063063063,108.26174409890282L231.4314314314314,137.25771427708025L232.23223223223223,124.37826354494635L233.033033033033,151.9715407092979L233.83383383383384,179.22072636547247L234.63463463463464,140.81647660301806L235.4354354354354,176.78597865953654L236.23623623623624,161.54106085529241L237.037037037037,172.06936012396858L237.83783783783784,123.28072466067638L238.63863863863864,188.29011134762655L239.43943943943947,142.38867928480406L240.24024024024024,156.91143754911434L241.041041041041,74.59133608236309L241.84184184184184,90.85125891439284L242.64264264264264,197.90317786717097L243.44344344344347,122.53265855574489L244.24424424424424,169.9918604309563L245.04504504504501,119.46492333226476L245.84584584584584,107.39195371877503L246.64664664664664,125.90958667278548L247.44744744744747,171.33657977963915L248.24824824824825,107.9241491082727L249.04904904904902,209.55251024624465L249.84984984984985,122.14574656976913L250.65065065065065,181.2968430119489L251.45145145145148,215.9794771405609L252.25225225225225,159.96383931331454L253.05305305305302,155.41218930259672L253.85385385385385,132.99515653985338L254.65465465465465,196.62701200034826L255.45545545545548,126.0349235209701L256.2562562562563,164.19249617340412L257.057057057057,144.66860514775178L257.8578578578579,194.71639785722385L258.6586586586586,88.75493330905525L259.4594594594595,132.32744198283422L260.2602602602603,165.01146910078378L261.061061061061,121.41983772008743L261.8618618618619,125.32622837134372L262.6626626626626,157.16712509813814L263.4634634634635,151.35339105541303L264.2642642642643,146.8038733574585L265.0650650650651,103.17251596060456L265.8658658658659,123.94573832974788L266.66666666666663,204.4037807250969L267.4674674674675,157.47414582923957L268.2682682682683,192.2699437459984L269.0690690690691,147.01886818126567L269.8698698698699,189.92158416105124L270.67067067067063,147.84909686165273L271.4714714714715,163.69293110567813L272.2722722722723,138.50994478057044L273.0730730730731,158.18627963238248L273.8738738738739,180.99171034267872L274.67467467467463,139.2667884095329L275.4754754754755,186.3202807909222L276.2762762762763,198.6654086982536L277.0770770770771,122.1985991187529L277.8778778778779,114.07047860580951L278.67867867867864,143.3669603903449L279.4794794794795,157.94312314282828L280.2802802802803,213.95573964925745L281.0810810810811,186.9050962670796L281.8818818818819,183.18001535570255L282.68268268268264,157.73643382590996L283.4834834834835,118.46317264844936L284.2842842842843,162.62555445887537L285.0850850850851,143.74749032392447L285.8858858858859,145.68922888175246L286.68668668668664,142.1031120777923L287.4874874874875,106.80304287040863L288.2882882882883,129.92935336589485L289.0890890890891,87.14168269954015L289.8898898898899,174.84514361559897L290.6906906906907,117.51859419158717L291.4914914914915,175.84252195676868L292.2922922922923,169.8090152229036L293.0930930930931,126.27311405805497L293.8938938938939,153.4848420358212L294.6946946946947,140.4135093307291L295.4954954954955,118.30721945620718L296.2962962962963,147.4434588064392L297.0970970970971,208.6543830260766L297.8978978978979,126.84303204384747L298.6986986986987,101.73542905791462L299.4994994994995,126.30948714583462L300.3003003003003,172.35897343205602L301.1011011011011,155.88970796412474L301.9019019019019,157.5622129087626L302.7027027027027,78.31982751950977L303.5035035035035,134.1624101509357L304.3043043043043,102.66874060383174L305.1051051051051,145.21216326008687L305.9059059059059,150.83491701878967L306.7067067067067,125.2218621915857L307.5075075075075,137.14563950254248L308.3083083083083,181.25964016330028L309.1091091091091,152.82015717555555L309.9099099099099,154.20681357778727L310.7107107107107,178.48178255397147L311.5115115115115,162.13370509174308L312.3123123123123,155.10126009882046L313.1131131131131,192.3753225101509L313.9139139139139,168.33118364235818L314.7147147147147,128.23216689010118L315.5155155155155,183.4952233560486L316.3163163163163,160.55325609867148L317.1171171171171,138.34543611751386L317.9179179179179,184.38941171472618L318.7187187187187,127.20729060786874L319.5195195195195,155.1965685857653L320.3203203203203,95.56389839696493L321.1211211211211,171.73043143683714L321.9219219219219,216.57920262380765L322.7227227227227,119.96324606353858L323.5235235235235,112.10012439567183L324.3243243243243,205.44189901861483L325.1251251251251,108.54986186306104L325.9259259259259,146.6223947635611L326.7267267267267,163.29618120511992L327.5275275275275,137.31542786361598L328.3283283283283,164.50132591327394L329.1291291291291,172.67927112575887L329.9299299299299,129.07785239048832L330.7307307307307,109.12865715703077L331.5315315315315,129.80083172764034L332.3323323323323,109.8721807908139L333.13313313313313,142.5724079394953L333.93393393393393,175.66653537495745L334.73473473473473,134.88713402689825L335.53553553553553,117.06934075469289L336.33633633633633,123.93483047477065L337.13713713713713,167.38540365587127L337.93793793793793,185.93605587385775L338.73873873873873,194.16829875937634L339.53953953953953,149.99228050186335L340.34034034034033,126.06190201018086L341.14114114114113,185.597150182093L341.941941941942,189.8105065642098L342.74274274274273,200.25882200724465L343.54354354354354,166.70659943089584L344.34434434434434,177.89265686469315L345.14514514514514,122.502885204677L345.94594594594594,146.19397689948255L346.74674674674674,135.90577210694568L347.54754754754754,94.83571314580607L348.34834834834834,192.3021759719586L349.14914914914914,128.83874065120435L349.94994994995,116.46468208679963L350.75075075075074,90.84161150757632L351.55155155155154,142.58848945132152L352.35235235235234,208.43780114744357L353.15315315315314,172.3907758221643L353.95395395395394,149.3588872583261L354.75475475475474,179.851197017321L355.55555555555554,183.18539582046313L356.35635635635634,142.74316802599648L357.15715715715714,148.37655899449578L357.957957957958,147.98887919350804L358.75875875875874,135.55326971180475L359.55955955955955,146.8043708101505L360.36036036036035,155.19010035516519L361.16116116116115,159.73527079215495L361.96196196196195,125.20889695013611L362.76276276276275,194.66594787632704L363.5635635635636,108.19454327575076L364.36436436436435,132.364461255022L365.16516516516515,167.94895434092973L365.965965965966,166.56584589220813L366.76676676676675,180.97289633257049L367.5675675675676,190.72410537366125L368.36836836836835,130.41002729982756L369.16916916916915,132.55628852401415L369.96996996996995,122.99578618133475L370.77077077077075,170.3654340136701L371.5715715715716,192.05267428593282L372.37237237237235,133.42909070847793L373.17317317317315,147.2475562404373L373.973973973974,128.83205116063294L374.77477477477476,132.50580000302952L375.5755755755756,134.99414509179593L376.37637637637636,142.88963380250746L377.17717717717716,201.37632572070862L377.97797797797796,186.6960221959534L378.77877877877876,166.91724155622478L379.5795795795796,107.79531461398912L380.38038038038036,121.69678386428438L381.18118118118116,120.76158266174701L381.981981981982,182.33991196826082L382.78278278278276,127.38244454786357L383.5835835835836,202.38620789703037L384.38438438438436,187.92551828009107L385.18518518518516,129.07730884757115L385.98598598598596,200.9940041830642L386.78678678678676,133.56687817627574L387.5875875875876,134.1217086731513L388.38838838838836,108.07156296838534L389.1891891891892,144.05034476606212L389.98998998999,204.8081382523671L390.79079079079077,135.85018773724437L391.5915915915916,150.21141444275509L392.39239239239237,104.04968379719179L393.1931931931932,173.581934089396L393.99399399399397,131.71751543523126L394.79479479479477,111.48063329164711L395.5955955955956,161.74893315747744L396.39639639639637,102.96307050782508L397.1971971971972,138.18033325940297L397.997997997998,102.34998105701527L398.79879879879877,130.04151462981466L399.5995995995996,92.60272681881929L400.40040040040043,172.59171958142588L401.20120120120123,197.01596038875698L402.002002002002,145.16401147487207L402.8028028028028,173.82794012726646L403.6036036036036,115.01618992776122L404.40440440440443,160.0203521417525L405.20520520520523,151.51051426525893L406.00600600600603,171.50305081316395L406.8068068068068,101.73297471292184L407.6076076076076,151.26129754324822L408.40840840840843,142.69249233386145L409.20920920920923,131.91080250823003L410.01001001001,140.01015215199055L410.8108108108108,138.94437116993763L411.6116116116116,126.60854424689472L412.41241241241244,182.11826739342854L413.21321321321324,127.9181054950549L414.01401401401404,196.09768245252815L414.8148148148148,187.30292738182007L415.6156156156156,160.28398313187745L416.41641641641644,149.1828687072157L417.21721721721724,152.60632043744113L418.018018018018,100.23179609034224L418.8188188188188,194.63791088766723L419.6196196196196,206.19190013701862L420.42042042042044,149.24871438641176L421.22122122122124,135.28459596435704L422.02202202202204,147.72469503512167L422.8228228228228,155.07293841226186L423.6236236236236,112.61331204792629L424.42442442442444,170.80761005448966L425.22522522522524,120.92021548898487L426.026026026026,185.89689613034554L426.8268268268268,191.92527147671336L427.62762762762765,176.31598732058325L428.42842842842845,162.36872573072642L429.22922922922925,171.98033997317847L430.03003003003005,164.83461122916773L430.8308308308308,157.54051858021228L431.63163163163165,162.587857556629L432.43243243243245,154.3499460080572L433.23323323323325,203.23813989363904L434.034034034034,156.56681042440704L434.8348348348348,120.41815687869973L435.63563563563565,152.3414725823083L436.43643643643645,188.77207263934727L437.23723723723725,122.06991341628765L438.03803803803805,151.79045990609677L438.8388388388388,188.88012379073308L439.63963963963965,179.6166157872559L440.44044044044045,96.2987128831646L441.24124124124126,108.994212653409L442.042042042042,162.54635853245722L442.8428428428428,80.43048460712404L443.64364364364366,171.08832151402356L444.44444444444446,128.84265984774845L445.24524524524526,92.63233033099522L446.04604604604606,205.65065235253428L446.8468468468468,172.41096959984378L447.64764764764766,187.92280382545889L448.44844844844846,99.80634633362914L449.24924924924926,157.65292457874418L450.05005005005,177.24776761771662L450.8508508508508,161.54090640265164L451.65165165165166,160.71074109282995L452.45245245245246,173.55708607922293L453.25325325325326,167.5051354365478L454.05405405405406,91.44811658111121L454.8548548548548,154.57977098283976L455.65565565565566,111.1965356555373L456.45645645645646,130.81240116657608L457.25725725725727,140.85165055161468L458.058058058058,147.60293689339068L458.8588588588588,212.81545185236138L459.65965965965967,195.21173019368115L460.46046046046047,202.3572578458071L461.26126126126127,154.44198057446005L462.06206206206207,137.34802484978707L462.8628628628628,106.64255731675897L463.66366366366367,123.15291307662329L464.46446446446447,189.91178128542433L465.26526526526527,142.21467294736019L466.066066066066,148.55228531194945L466.8668668668668,175.28775358403965L467.6676676676677,144.8759632810824L468.4684684684685,101.00177430259888L469.2692692692693,163.89199286114504L470.0700700700701,156.48687379233996L470.8708708708708,117.05783233527151L471.6716716716717,126.51928491936988L472.4724724724725,136.61002188692143L473.2732732732733,126.92816698037345L474.074074074074,134.3485349927606L474.8748748748748,127.84027122658824L475.6756756756757,136.5443214810224L476.4764764764765,158.23243692570222L477.2772772772773,229.75199241460837L478.0780780780781,154.5932805214145L478.87887887887894,190.84349636850192L479.6796796796797,168.56954855338296L480.4804804804805,113.1657320240299L481.2812812812813,192.7246019015773L482.082082082082,184.03331023937744L482.88288288288294,116.31431506812186L483.6836836836837,186.8516930000997L484.4844844844845,137.12557543219765L485.2852852852853,116.22717499989764L486.0860860860861,160.34438399762382L486.88688688688694,129.24054139920295L487.6876876876877,125.95641759994118L488.4884884884885,192.4955154980338L489.2892892892893,191.22344642450344L490.09009009009003,106.28659387461605L490.89089089089094,207.34332616378117L491.6916916916917,190.85512847337242L492.4924924924925,121.77168057728335L493.2932932932933,152.39532235371618L494.0940940940941,193.2245896099946L494.89489489489495,125.09772230026635L495.6956956956957,118.81317113821268L496.4964964964965,218.7551648585615L497.2972972972973,182.1064547024597L498.09809809809803,117.09716249786396L498.89889889889895,90.12667001195359L499.6996996996997,165.7106837826075L500.5005005005005,163.18245243711544L501.3013013013013,132.16761494067524L502.1021021021021,135.61517978745698L502.90290290290295,92.52476238417634L503.7037037037037,135.2498085335689L504.5045045045045,153.67232999254762L505.3053053053053,168.79525610983492L506.10610610610604,200.37572249923036L506.90690690690695,145.24999175413237L507.7077077077077,147.09893451137387L508.5085085085085,129.65916964376197L509.3093093093093,174.33025781820453L510.1101101101101,159.3293675360629L510.91091091091096,147.54320655847206L511.7117117117117,98.18113144463908L512.5125125125126,128.3975378271854L513.3133133133133,110.56912285751883L514.114114114114,67.71991850855471L514.9149149149149,221.24804171934753L515.7157157157158,174.5772143089274L516.5165165165165,129.39418708922494L517.3173173173172,103.65578522056242L518.1181181181181,154.13437863411804L518.918918918919,146.07824284976488L519.7197197197197,111.7930617563162L520.5205205205206,123.70001614890558L521.3213213213213,188.25180782227108L522.122122122122,172.06021184455818L522.9229229229229,125.9220856619996L523.7237237237238,138.73374473437985L524.5245245245245,115.66173780120198L525.3253253253253,151.2907093664481L526.1261261261262,115.4480717599123L526.926926926927,170.63085517052636L527.7277277277277,147.386092992621L528.5285285285286,150.46614194514407L529.3293293293293,169.49057261457347L530.1301301301302,137.68806286890063L530.9309309309309,124.58331880355607L531.7317317317318,163.1737839112685L532.5325325325325,147.11043171165227L533.3333333333333,197.11689854561473L534.1341341341342,117.68063460320181L534.934934934935,112.50610469359603L535.7357357357357,153.0643510415692L536.5365365365366,152.97803638372005L537.3373373373373,154.5663437139688L538.1381381381382,111.17714509068512L538.9389389389389,196.60227437082142L539.7397397397398,182.2637711204648L540.5405405405405,164.82082270489798L541.3413413413413,130.0957919354727L542.1421421421422,198.60092787511664L542.942942942943,167.22375244402005L543.7437437437437,90.7321607725982L544.5445445445446,158.38323477160108L545.3453453453453,171.58850092792986L546.1461461461462,153.65033427666953L546.9469469469469,115.63175304939804L547.7477477477478,182.93583889063615L548.5485485485485,215.59453687822224L549.3493493493493,181.13093739608618L550.1501501501502,94.61969023505608L550.950950950951,128.46079098219616L551.7517517517517,92.91358495056136L552.5525525525526,198.21341548610127L553.3533533533533,168.4833155255717L554.1541541541542,108.1173737876058L554.9549549549549,101.04481638129673L555.7557557557558,165.84378057881636L556.5565565565565,190.2329065037835L557.3573573573573,172.67755747198814L558.1581581581582,116.8139618947626L558.958958958959,89.16806651784097L559.7597597597597,209.60782101501985L560.5605605605606,198.40313577795723L561.3613613613613,155.96956149969697L562.1621621621622,130.40240250890136L562.9629629629629,130.98279039566677L563.7637637637638,155.23232833327967L564.5645645645645,158.44585388234526L565.3653653653653,170.3905987119918L566.1661661661662,108.8068419682863L566.966966966967,128.46173431282958L567.7677677677677,163.7324532051993L568.5685685685686,184.18075217471585L569.3693693693693,150.97875995206854L570.1701701701702,125.09128981150948L570.9709709709709,143.31632502216593L571.7717717717718,122.05905032193212L572.5725725725725,129.0537987469948L573.3733733733733,139.1476732724916L574.1741741741743,156.41145346048452L574.974974974975,159.64054293075205L575.7757757757757,183.15632074282632L576.5765765765766,90.38535252000429L577.3773773773775,145.58065852785705L578.1781781781782,181.05098955956237L578.978978978979,178.42607449648432L579.7797797797798,161.90836527657837L580.5805805805805,152.4452282425961L581.3813813813814,166.1419994504651L582.1821821821823,144.46925064180354L582.982982982983,120.4560888534701L583.7837837837837,185.81960619749924L584.5845845845846,172.36724740691386L585.3853853853855,155.97277045108902L586.1861861861862,181.92868288110708L586.986986986987,83.97935565323925L587.7877877877878,178.13510734716064L588.5885885885886,160.8594861086527L589.3893893893894,165.60605034426953L590.1901901901903,156.09030825123202L590.990990990991,144.31655384176315L591.7917917917918,160.9446605323459L592.5925925925926,122.93737169283597L593.3933933933935,130.49553083794277L594.1941941941942,96.87020668794835L594.994994994995,101.49725394388622L595.7957957957958,164.23738437775623L596.5965965965966,138.95293296896213L597.3973973973974,150.49615272292993L598.1981981981983,140.28520784883784L598.998998998999,141.97946872607696L599.7997997997998,124.40773090208324L600.6006006006006,167.05286792194408L601.4014014014015,177.4574212927618L602.2022022022022,116.01383511736995L603.003003003003,223.52095340573808L603.8038038038038,136.17239337301262L604.6046046046046,181.55921700948488L605.4054054054054,135.7098922139117L606.2062062062063,121.86666872843847L607.007007007007,146.5033492719899L607.8078078078078,173.95619188708417L608.6086086086086,133.62529143683074L609.4094094094095,110.4499866213614L610.2102102102102,168.85345775231715L611.011011011011,132.3598509800483L611.8118118118118,108.55960665196483L612.6126126126126,166.9089685715011L613.4134134134134,120.23842339859948L614.2142142142143,141.7781499773946L615.015015015015,166.6934690090852L615.8158158158158,174.5498522172232L616.6166166166166,166.39240409127328L617.4174174174175,127.82931056346465L618.2182182182182,166.95268146399349L619.019019019019,174.72698266459184L619.8198198198198,140.92713366292503L620.6206206206206,90.15792236818248L621.4214214214214,179.43940762212407L622.2222222222223,92.46045845993203L623.023023023023,150.51644863535856L623.8238238238238,183.68920324267197L624.6246246246246,192.58468286296738L625.4254254254255,186.49926253495522L626.2262262262262,163.1441733240314L627.027027027027,120.74327791038294L627.8278278278278,178.61513691911108L628.6286286286287,95.701770972252L629.4294294294294,137.85534822162884L630.2302302302303,176.33373601326255L631.031031031031,159.61629924132677L631.8318318318318,144.46958974914602L632.6326326326326,160.14741407172806L633.4334334334335,148.38320204563462L634.2342342342342,123.13926340188831L635.035035035035,128.0595718185577L635.8358358358358,78.47042454843668L636.6366366366367,185.22945921106785L637.4374374374374,138.0909976392932L638.2382382382383,98.37562020530643L639.039039039039,164.30080823418587L639.8398398398398,155.77351486365677L640.6406406406406,113.4246930823704L641.4414414414415,191.75182254021166L642.2422422422422,150.36733584381776L643.043043043043,162.76701040280724L643.8438438438438,108.4016220371382L644.6446446446447,169.10426082200078L645.4454454454454,176.4761104099239L646.2462462462463,161.51356311052277L647.047047047047,146.73692010208688L647.8478478478478,124.99353761326242L648.6486486486486,168.20738103205466L649.4494494494495,139.27578571086846L650.2502502502502,125.97439860486247L651.051051051051,161.69599918958366L651.8518518518518,119.23749805664642L652.6526526526527,104.51302166496654L653.4534534534534,187.5991496734941L654.2542542542543,150.17573620176327L655.055055055055,120.62483255364643L655.8558558558558,200.5733281120319L656.6566566566567,130.50431592903448L657.4574574574575,144.41060573481758L658.2582582582583,173.69527957980236L659.059059059059,125.04446818318607L659.8598598598599,179.32356325396253L660.6606606606607,204.62759726116553L661.4614614614615,126.63708847969346L662.2622622622623,145.41610642797852L663.063063063063,144.01373373384453L663.8638638638638,159.71330922674872L664.6646646646647,134.4852260506428L665.4654654654655,105.33206060339964L666.2662662662663,201.29819495625398L667.067067067067,128.5967861560305L667.8678678678679,179.75290433433258L668.6686686686687,95.30819483818794L669.4694694694695,99.78186238357978L670.2702702702703,120.43767741991547L671.0710710710711,115.77817180175651L671.8718718718718,196.78991204953303L672.6726726726727,141.98595083959577L673.4734734734735,160.8715304568495L674.2742742742743,194.70911976189234L675.075075075075,130.41086087300937L675.8758758758759,155.91282921115973L676.6766766766767,151.96600969228794L677.4774774774775,118.331271675014L678.2782782782783,126.45559922729583L679.0790790790791,167.906928796851L679.8798798798799,157.31165948660188L680.6806806806807,156.24335322376777L681.4814814814815,152.61924891585193L682.2822822822823,167.544413636342L683.083083083083,154.38444970919448L683.883883883884,136.48002478861778L684.6846846846847,69.83812615529922L685.4854854854855,179.689641581121L686.2862862862863,179.83867314402008L687.0870870870871,167.69096699484643L687.8878878878879,157.18004464448953L688.6886886886887,180.87251221172158L689.4894894894895,200.6453373902882L690.2902902902903,146.2705162392618L691.091091091091,137.9124646450783L691.8918918918919,178.61951272534333L692.6926926926927,97.28989587350574L693.4934934934935,184.3860198524294L694.2942942942943,165.12941334057257L695.0950950950951,131.65316857464856L695.8958958958959,143.90143123133748L696.6966966966967,172.49492874519532L697.4974974974975,117.46119444499183L698.2982982982983,154.8395371756209L699.099099099099,148.45922476046297L699.8998998999,176.6926209386025L700.7007007007007,113.62180506335687L701.5015015015015,166.55329724970196L702.3023023023023,161.0172540904233L703.1031031031031,170.33764882191474L703.9039039039039,223.7570009529844L704.7047047047047,118.49333019740743L705.5055055055055,155.0464575974096L706.3063063063063,159.175951459996L707.107107107107,118.82119564506877L707.9079079079079,108.45929469647697L708.7087087087087,159.2215481135767L709.5095095095095,172.28543048076887L710.3103103103103,101.88509314671535L711.1111111111111,116.41406761139078L711.911911911912,150.6290336483249L712.7127127127127,72.70487194585144L713.5135135135135,162.63089588947003L714.3143143143143,128.2495522348161L715.115115115115,138.2883206192123L715.915915915916,177.2975772345738L716.7167167167167,166.98016894018338L717.5175175175175,217.67351490504421L718.3183183183183,174.15267595146878L719.1191191191191,167.77559769640152L719.91991991992,103.80258550480667L720.7207207207207,151.108599290936L721.5215215215215,149.7139190836753L722.3223223223223,195.36479457147698L723.123123123123,168.42893456120947L723.9239239239239,127.41354134433698L724.7247247247248,128.12115850837853L725.5255255255255,137.00377361045375L726.3263263263264,183.98176495488835L727.1271271271272,155.36212396183603L727.927927927928,105.91960724907528L728.7287287287287,174.3786855250081L729.5295295295296,160.26051929538448L730.3303303303303,140.16616797189178L731.1311311311312,172.33793600879886L731.931931931932,115.93611579375494L732.7327327327328,181.7341986888249L733.5335335335335,150.22820412215844L734.3343343343344,124.2193602271849L735.1351351351352,171.9972186324655L735.935935935936,149.72152347383877L736.7367367367367,171.8474683799028L737.5375375375376,150.48811586097992L738.3383383383383,90.31558335253183L739.1391391391392,142.1344362942052L739.9399399399399,176.42396390037223L740.7407407407408,180.21857749829326L741.5415415415415,131.79562467714229L742.3423423423424,216.64330489859657L743.1431431431432,160.83877617040693L743.943943943944,157.16361993095035L744.7447447447447,138.6211208107264L745.5455455455456,219.26490941237287L746.3463463463463,142.62227342735378L747.1471471471472,153.62432935676486L747.947947947948,184.4895496712635L748.7487487487488,200.27474231084904L749.5495495495495,161.80996168873844L750.3503503503504,127.79752774124466L751.1511511511512,68.94583698761784L751.951951951952,131.6285100120981L752.7527527527527,109.20977643445104L753.5535535535536,192.63537986179023L754.3543543543543,196.27167293113584L755.1551551551552,197.7008180606062L755.9559559559559,130.11547040610228L756.7567567567568,144.74052967016456L757.5575575575575,182.79416215324144L758.3583583583584,137.72100747746833L759.1591591591592,160.59152330260832L759.95995995996,178.88655107831408L760.7607607607607,196.9770865307905L761.5615615615616,173.4970338896832L762.3623623623623,173.06420358696354L763.1631631631632,134.58130455240794L763.963963963964,151.60451204150291L764.7647647647648,169.11186100736387L765.5655655655655,136.61612571734452L766.3663663663664,208.7471710229119L767.1671671671672,170.94080989762276L767.967967967968,205.5092198047122L768.7687687687687,234.18206395476196L769.5695695695696,145.3117098560578L770.3703703703703,206.09621795457844L771.1711711711712,108.44058771697507L771.9719719719719,140.8709669634736L772.7727727727728,192.06318343726426L773.5735735735735,138.80964966090147L774.3743743743744,161.4596722638941L775.1751751751752,160.89548724762798L775.975975975976,136.02644149431046L776.7767767767767,128.5189337561676L777.5775775775776,129.36113730793662L778.3783783783784,139.6384393712692L779.1791791791792,179.93055758209834L779.97997997998,170.92752480053937L780.7807807807808,66.622770974605L781.5815815815815,136.16263111569398L782.3823823823824,167.4793521571909L783.1831831831832,110.61829650798106L783.983983983984,139.88228128162888L784.7847847847847,85.93931192725634L785.5855855855856,174.39478883331788L786.3863863863864,139.61369610488882L787.1871871871872,123.6215482688315L787.9879879879879,120.28334917630397L788.7887887887888,160.99073113006244L789.5895895895895,124.56587648108865L790.3903903903904,205.141179893755L791.1911911911913,175.77193174242552L791.991991991992,175.14333386354127L792.7927927927927,208.51675696043168L793.5935935935936,157.61714277769025L794.3943943943945,193.68418509045452L795.1951951951952,159.32344101298654L795.995995995996,135.31316522339768L796.7967967967968,106.64187777920907L797.5975975975975,148.80781317091163L798.3983983983984,97.7676122738919L799.1991991991993,169.24956410849288L800,124.36512838880085"
    fill="transparent"
    stroke="red"
  ></path>
  <path
    d="M0,134.9837810762759L0.8008008008008007,168.90231064533512L1.6016016016016015,163.92920976487497L2.4024024024024024,117.6068902909214L3.203203203203203,135.27071822455L4.004004004004004,181.8414148368408L4.804804804804805,91.97079703129313L5.605605605605605,130.9861729008648L6.406406406406406,176.47633078512507L7.207207207207207,118.91223070867628L8.008008008008009,144.23923669016776L8.80880880880881,207.95672608506595L9.60960960960961,139.2477338790873L10.41041041041041,123.06031525314435L11.21121121121121,135.57259188689403L12.012012012012011,85.90835126361742L12.812812812812812,165.5150373692568L13.613613613613614,186.1036829751763L14.414414414414415,178.8105121671805L15.215215215215217,142.81026411329927L16.016016016016017,182.84293436691206L16.816816816816818,171.5564549403798L17.61761761761762,172.46759996598135L18.41841841841842,137.1853265653059L19.21921921921922,132.30031154605211L20.02002002002002,116.95396795731446L20.82082082082082,106.94205070057257L21.62162162162162,141.11456746108888L22.42242242242242,146.03037637008313L23.223223223223226,123.01815328918795L24.024024024024023,115.56943743497476L24.824824824824827,159.33204503673974L25.625625625625624,183.92301200138758L26.426426426426424,167.29798984005396L27.227227227227228,147.20107894040794L28.02802802802803,156.81777238033922L28.82882882882883,104.83946591662564L29.629629629629626,156.16268169581696L30.430430430430434,155.94018629505572L31.23123123123123,176.0541174965806L32.032032032032035,126.7904698331669L32.83283283283283,150.76351060156617L33.633633633633636,194.12791326848657L34.434434434434436,160.82269255558404L35.23523523523524,126.10572219192537L36.03603603603604,189.70342729102117L36.83683683683684,165.55179717965393L37.63763763763764,146.4036336342182L38.43843843843844,160.96874424779503L39.23923923923924,151.84958423274313L40.04004004004004,138.9350405778782L40.84084084084084,156.0903731127861L41.64164164164164,158.46036049600136L42.44244244244244,127.02846907203713L43.24324324324324,199.08280969137502L44.04404404404404,136.88182155400995L44.84484484484484,144.88046333460062L45.645645645645644,130.05340575301682L46.44644644644645,166.29208704840033L47.247247247247245,179.76666167963265L48.048048048048045,128.59876232154366L48.848848848848846,146.07204795814062L49.64964964964965,184.49818766978905L50.45045045045045,120.057394465349L51.25125125125125,148.14907929737745L52.052052052052055,120.12187979734065L52.85285285285285,161.5493385010826L53.653653653653656,156.08931040579392L54.454454454454456,131.80540150399122L55.25525525525525,145.76331267002473L56.05605605605606,145.00305444731163L56.85685685685685,169.2281751839791L57.65765765765766,162.64263662486164L58.45845845845846,174.87681092029322L59.25925925925925,152.49674762932796L60.06006006006006,145.72090313033746L60.86086086086087,121.3413281106667L61.66166166166166,130.21544642413394L62.46246246246246,108.7842634502864L63.263263263263255,178.09727829862118L64.06406406406407,231.69707647897758L64.86486486486487,148.1341271054977L65.66566566566566,121.31502942239038L66.46646646646647,156.0936009684268L67.26726726726727,174.8782087681793L68.06806806806807,193.3776301208328L68.86886886886887,158.99405418389924L69.66966966966966,168.11361245792776L70.47047047047047,168.61238375939547L71.27127127127127,152.49288078673558L72.07207207207207,144.76557671115933L72.87287287287288,170.37643442785634L73.67367367367368,170.00590436167874L74.47447447447448,120.52346336638396L75.27527527527528,82.52117886607397L76.07607607607608,125.23249841327456L76.87687687687688,158.90268762208723L77.67767767767768,160.53974781442233L78.47847847847848,222.49022184589091L79.27927927927928,160.36610316114357L80.08008008008008,101.05491097772773L80.88088088088088,153.7103431401678L81.68168168168168,153.66877997831415L82.48248248248248,162.91125537179525L83.28328328328328,124.42368945159262L84.08408408408408,157.30754019545734L84.88488488488488,166.94430965797147L85.68568568568568,158.82236864114392L86.48648648648648,189.95002905232553L87.28728728728728,180.36414172191792L88.08808808808809,87.1322673589915L88.88888888888889,175.8307172336559L89.68968968968969,173.23879132645104L90.49049049049049,76.70278448585509L91.29129129129129,190.23925959116815L92.09209209209209,174.31235398503907L92.8928928928929,124.77370808703569L93.69369369369369,209.82325033212396L94.49449449449449,122.17151302008003L95.29529529529529,77.5814386880337L96.09609609609609,176.91947402731174L96.8968968968969,157.34935347775848L97.69769769769769,162.25950603127697L98.49849849849849,136.2582890541179L99.2992992992993,117.71041368180491L100.10010010010011,163.62923639550743L100.9009009009009,151.85125733620288L101.7017017017017,127.65125402650042L102.5025025025025,112.54977564647106L103.30330330330331,144.7109044713262L104.10410410410411,171.48788512731304L104.9049049049049,171.04643453051784L105.7057057057057,134.14681426340383L106.5065065065065,138.1017274822837L107.30730730730731,104.78134843503412L108.10810810810811,166.89146595024584L108.90890890890891,164.2378817777512L109.7097097097097,153.20670282918402L110.5105105105105,145.20118180750885L111.31131131131131,147.8561336236088L112.11211211211211,152.60906006625936L112.91291291291292,170.901530112895L113.7137137137137,126.54300002156504L114.5145145145145,197.60593575043453L115.31531531531532,144.57982855768603L116.11611611611612,121.6847790051047L116.91691691691692,150.54037597004L117.7177177177177,162.61297986981833L118.5185185185185,151.7195990864714L119.31931931931932,131.10292534224473L120.12012012012012,116.05118671380242L120.92092092092092,82.718416138468L121.72172172172174,194.06694725096753L122.52252252252251,171.21060198777377L123.32332332332332,139.69224831768847L124.12412412412412,221.91621090271798L124.92492492492492,154.87627629486678L125.72572572572574,167.96390058497667L126.52652652652651,147.62445426541794L127.32732732732732,173.5147061903519L128.12812812812814,141.92414657419005L128.92892892892894,152.68530357555304L129.72972972972974,132.81360826296032L130.5305305305305,129.624793425893L131.3313313313313,146.64719852138552L132.13213213213214,131.8283279940081L132.93293293293294,109.38122295757071L133.73373373373374,134.29254839332154L134.53453453453454,138.88658882336864L135.33533533533532,136.2504218200045L136.13613613613614,125.37808620538692L136.93693693693695,154.52805939913517L137.73773773773775,156.9435558391803L138.53853853853855,149.6846106794547L139.33933933933932,95.69040939219408L140.14014014014015,159.10126515382328L140.94094094094095,153.87892436572L141.74174174174175,171.62990276469716L142.54254254254255,180.943387069517L143.34334334334332,109.59460871370766L144.14414414414415,183.21327355431478L144.94494494494495,135.1525647908644L145.74574574574575,109.85771276369817L146.54654654654655,157.28261047508087L147.34734734734735,130.38245282132937L148.14814814814815,159.19860026927307L148.94894894894895,125.22764194448214L149.74974974974975,153.65454030268617L150.55055055055055,159.3287027970254L151.35135135135135,153.86485563753695L152.15215215215215,194.20626464957326L152.95295295295296,160.32575507079025L153.75375375375376,125.8639451409382L154.55455455455456,158.9607113020517L155.35535535535536,174.9776860170307L156.15615615615616,192.85511674469328L156.95695695695696,153.50144311147704L157.75775775775776,138.01877957748053L158.55855855855856,144.13386556252487L159.35935935935936,123.13365613271719L160.16016016016016,136.2930844300726L160.96096096096096,136.11673849238255L161.76176176176176,157.05135162934135L162.56256256256256,209.8818547376992L163.36336336336336,140.27835569087063L164.16416416416416,196.1337713660341L164.96496496496496,154.03729419606694L165.76576576576576,118.94782381334218L166.56656656656656,135.3258170498691L167.36736736736736,182.8338812933373L168.16816816816817,141.90844408204936L168.96896896896897,152.51738902676485L169.76976976976977,180.05267062871982L170.57057057057057,177.463661462713L171.37137137137137,107.05409220169938L172.17217217217217,120.21104705100524L172.97297297297297,149.79600658789482L173.77377377377377,161.99997794245644L174.57457457457457,206.4171059023613L175.37537537537537,153.60033873766315L176.17617617617617,174.26890066083575L176.97697697697697,144.06572391552064L177.77777777777777,153.22065336167313L178.57857857857857,149.31009243180284L179.37937937937937,118.26726458416809L180.18018018018017,166.74377658359617L180.98098098098097,159.32357241123913L181.7817817817818,146.97636916420674L182.58258258258257,153.68180860612273L183.38338338338338,136.13430541316944L184.18418418418418,214.63615456107448L184.98498498498498,154.1603092825169L185.7857857857858,210.96187135475083L186.58658658658658,182.54560216800888L187.38738738738738,135.25984985172494L188.18818818818818,137.90833125611454L188.98898898898898,126.39788975397204L189.7897897897898,155.68247007159508L190.59059059059058,182.35559093051322L191.39139139139138,155.60385172053816L192.19219219219218,193.27980783852766L192.99299299299298,97.35620956491809L193.7937937937938,170.14356664105972L194.5945945945946,139.36691947494876L195.39539539539538,149.01237033684785L196.19619619619618,106.57845274130739L196.99699699699698,94.60328729025335L197.7977977977978,130.16155449165393L198.5985985985986,136.45490533267665L199.39939939939939,148.91221651146955L200.20020020020021,192.95825387790956L201.001001001001,186.4067023007654L201.8018018018018,170.8385156430018L202.60260260260262,199.04299143015206L203.4034034034034,176.86810276726555L204.20420420420422,166.35218091968193L205.005005005005,160.5839104693215L205.8058058058058,142.40083507718592L206.60660660660662,138.46223994914567L207.4074074074074,180.1961157131928L208.20820820820822,159.19313126362698L209.009009009009,130.94412866445248L209.8098098098098,122.60119057224748L210.61061061061062,132.50973697698137L211.4114114114114,149.27256529518306L212.21221221221222,152.94772572397753L213.013013013013,125.90013494046474L213.81381381381382,129.57002774847436L214.61461461461462,104.71535382803319L215.4154154154154,72.41961771775973L216.21621621621622,127.68573874014669L217.017017017017,187.18901808015397L217.81781781781783,124.86704640465194L218.61861861861863,166.7425991246208L219.4194194194194,173.48061640914287L220.22022022022023,132.3151316133474L221.021021021021,176.57240184266638L221.82182182182183,114.31744590227734L222.62262262262263,135.40711575591473L223.4234234234234,170.98708551152018L224.22422422422423,151.98210636783776L225.025025025025,103.2038469885087L225.82582582582583,120.41216700352774L226.62662662662663,139.5260560192343L227.4274274274274,125.6663769266728L228.22822822822823,164.82690593903283L229.029029029029,183.18884733795596L229.82982982982983,150.496140325352L230.63063063063063,94.62697127806626L231.4314314314314,166.11559682888804L232.23223223223223,170.6164904598105L233.033033033033,130.2629657155359L233.83383383383384,177.11262657893872L234.63463463463464,171.8738304148624L235.4354354354354,151.65300653654836L236.23623623623624,138.83723448481345L237.037037037037,157.73414964685077L237.83783783783784,182.52728336923377L238.63863863863864,77.44586466367534L239.43943943943947,190.2933422604398L240.24024024024024,173.27451310766884L241.041041041041,204.9103339271241L241.84184184184184,178.00122651016696L242.64264264264264,170.6940846248392L243.44344344344347,195.54485925186475L244.24424424424424,169.72739670783344L245.04504504504501,156.1718954716744L245.84584584584584,120.80235906518303L246.64664664664664,161.94795907610452L247.44744744744747,152.1397371331142L248.24824824824825,139.45837114458965L249.04904904904902,121.95166853656747L249.84984984984985,131.97991909863367L250.65065065065065,109.01438951308722L251.45145145145148,118.2314170846015L252.25225225225225,193.28115650907404L253.05305305305302,110.24457831738576L253.85385385385385,137.24523580799186L254.65465465465465,111.6804661906705L255.45545545545548,107.03421826692949L256.2562562562563,166.80868296357025L257.057057057057,162.30667104933988L257.8578578578579,138.3598440815845L258.6586586586586,124.0850038855555L259.4594594594595,154.52774407871453L260.2602602602603,172.5327231870391L261.061061061061,162.50825912998783L261.8618618618619,157.15729363418424L262.6626626626626,124.67901855281406L263.4634634634635,183.16612610164412L264.2642642642643,85.11064911521251L265.0650650650651,165.68832415130535L265.8658658658659,157.6741823448354L266.66666666666663,169.60044272657947L267.4674674674675,163.2628004065345L268.2682682682683,218.72100100795063L269.0690690690691,127.47007055311096L269.8698698698699,165.4468412922372L270.67067067067063,170.45309079074042L271.4714714714715,149.06278293638744L272.2722722722723,108.85884311791906L273.0730730730731,188.63067522199987L273.8738738738739,159.75164447475845L274.67467467467463,127.92595318047509L275.4754754754755,121.82739498752196L276.2762762762763,132.24481143131547L277.0770770770771,148.85169460431194L277.8778778778779,151.02164083612635L278.67867867867864,141.13703483120042L279.4794794794795,184.7578393198683L280.2802802802803,156.74790263891748L281.0810810810811,205.5682783371542L281.8818818818819,113.19095099501197L282.68268268268264,113.74657597263462L283.4834834834835,196.25546071643237L284.2842842842843,97.09588295053146L285.0850850850851,180.59519277666192L285.8858858858859,159.13224695968194L286.68668668668664,134.36538874547617L287.4874874874875,143.04860763621036L288.2882882882883,162.48613586394293L289.0890890890891,165.66194283568342L289.8898898898899,156.26740735414083L290.6906906906907,166.95111899127002L291.4914914914915,91.85629547546651L292.2922922922923,162.51362007336056L293.0930930930931,188.96416912269635L293.8938938938939,158.40616511125452L294.6946946946947,183.56965894372132L295.4954954954955,198.05752902699442L296.2962962962963,139.14761916509553L297.0970970970971,153.83913117883387L297.8978978978979,160.0580650707726L298.6986986986987,186.18968849292278L299.4994994994995,165.13389607231073L300.3003003003003,198.75500991171205L301.1011011011011,84.63712605551592L301.9019019019019,143.16798314676657L302.7027027027027,122.29032563878116L303.5035035035035,169.31535537164999L304.3043043043043,138.1196739161087L305.1051051051051,214.05972639551936L305.9059059059059,133.16759871631504L306.7067067067067,175.2947176662828L307.5075075075075,132.0193419315342L308.3083083083083,158.7110070578964L309.1091091091091,136.4447288023407L309.9099099099099,131.12759261123594L310.7107107107107,178.3125211698482L311.5115115115115,200.13948550559033L312.3123123123123,136.69414827888951L313.1131131131131,142.2984364857892L313.9139139139139,123.90739820605705L314.7147147147147,173.66463773268237L315.5155155155155,151.92371969954146L316.3163163163163,94.28215113171788L317.1171171171171,115.01264374462895L317.9179179179179,130.2165347719419L318.7187187187187,174.44367524884711L319.5195195195195,170.19713474682786L320.3203203203203,160.55020054398645L321.1211211211211,119.21375736478964L321.9219219219219,98.53578178451329L322.7227227227227,165.69624451377857L323.5235235235235,115.56122201365591L324.3243243243243,146.37078945385133L325.1251251251251,191.78676795498285L325.9259259259259,157.7366632047251L326.7267267267267,188.71552565337208L327.5275275275275,143.1849604713161L328.3283283283283,133.11276945630323L329.1291291291291,144.65733851633746L329.9299299299299,153.3208413956841L330.7307307307307,163.9430627337836L331.5315315315315,96.11551777292584L332.3323323323323,156.7154288564102L333.13313313313313,130.7421113579933L333.93393393393393,181.21359736584859L334.73473473473473,162.27984808981043L335.53553553553553,123.06277355161032L336.33633633633633,127.59882344498749L337.13713713713713,140.42067015555898L337.93793793793793,184.96019462573054L338.73873873873873,156.52940707561788L339.53953953953953,162.1149608725852L340.34034034034033,161.35390603167576L341.14114114114113,138.86002354511183L341.941941941942,178.75064000275788L342.74274274274273,198.35810234131236L343.54354354354354,185.5592696909394L344.34434434434434,107.0955651721633L345.14514514514514,143.7383488620034L345.94594594594594,151.0499411126919L346.74674674674674,142.99258908131225L347.54754754754754,146.61450333049189L348.34834834834834,183.81731151192582L349.14914914914914,124.44157355730522L349.94994994995,129.41532390388082L350.75075075075074,140.15065634436215L351.55155155155154,117.6200682540726L352.35235235235234,175.47854872836183L353.15315315315314,91.43882656038517L353.95395395395394,134.61072427395953L354.75475475475474,116.83232052040029L355.55555555555554,154.18993105547415L356.35635635635634,167.1172669798088L357.15715715715714,153.49045222739673L357.957957957958,107.70552324194864L358.75875875875874,94.79767746018067L359.55955955955955,184.80014308785508L360.36036036036035,145.07785541045146L361.16116116116115,200.32594607647388L361.96196196196195,164.23819901792035L362.76276276276275,172.989717068112L363.5635635635636,124.94598780784634L364.36436436436435,61.94908503017504L365.16516516516515,168.1272074985356L365.965965965966,144.9269474017517L366.76676676676675,198.27377009270145L367.5675675675676,180.69719660540954L368.36836836836835,129.58188073958158L369.16916916916915,147.22337888022813L369.96996996996995,123.60590627457037L370.77077077077075,134.6837958803617L371.5715715715716,190.66586939829034L372.37237237237235,124.55606563303829L373.17317317317315,183.39493140341372L373.973973973974,174.11645103039598L374.77477477477476,139.83507041441305L375.5755755755756,196.61771984886383L376.37637637637636,183.6369862860863L377.17717717717716,103.04683176128833L377.97797797797796,153.6028908469274L378.77877877877876,93.24902822556774L379.5795795795796,167.22651868670647L380.38038038038036,203.6330644925236L381.18118118118116,153.9264679208158L381.981981981982,167.65926197977166L382.78278278278276,135.71417304967605L383.5835835835836,152.2570938815474L384.38438438438436,215.03491584070292L385.18518518518516,213.98447456165343L385.98598598598596,150.65958625043135L386.78678678678676,159.89797912527732L387.5875875875876,158.7737535579021L388.38838838838836,159.89379832925948L389.1891891891892,143.50234115009178L389.98998998999,167.49574112376834L390.79079079079077,158.21230306603567L391.5915915915916,131.94348814952664L392.39239239239237,163.0981464150078L393.1931931931932,110.25852564435235L393.99399399399397,203.75152798339352L394.79479479479477,129.60830772145948L395.5955955955956,155.05721570859777L396.39639639639637,188.43732373676391L397.1971971971972,140.63614216210192L397.997997997998,145.92801389955204L398.79879879879877,148.28295276992029L399.5995995995996,137.66734001707587L400.40040040040043,153.30274805039764L401.20120120120123,211.4934579450521L402.002002002002,140.23610804715435L402.8028028028028,138.38787195597882L403.6036036036036,145.16909637892547L404.40440440440443,139.6552004286002L405.20520520520523,192.8016655329841L406.00600600600603,191.31509442902498L406.8068068068068,129.773871786999L407.6076076076076,162.8817747563848L408.40840840840843,137.93140026290337L409.20920920920923,138.304010562743L410.01001001001,215.13182504989513L410.8108108108108,107.9132799846657L411.6116116116116,206.05625924028465L412.41241241241244,119.06320282822224L413.21321321321324,202.43367413059948L414.01401401401404,158.75119254642314L414.8148148148148,136.0816173281335L415.6156156156156,163.7471015470953L416.41641641641644,174.757738770454L417.21721721721724,156.19258745906342L418.018018018018,141.65772022467598L418.8188188188188,72.68218544038493L419.6196196196196,190.34782293260628L420.42042042042044,124.41131745308206L421.22122122122124,161.20908232863536L422.02202202202204,179.02859140961777L422.8228228228228,148.8493754130543L423.6236236236236,192.56881307688488L424.42442442442444,159.02262251565102L425.22522522522524,175.90622254483836L426.026026026026,127.19054251144158L426.8268268268268,127.54466096177035L427.62762762762765,190.48607151662947L428.42842842842845,124.07684173630582L429.22922922922925,199.44424553850297L430.03003003003005,197.46892997202062L430.8308308308308,136.3208445092719L431.63163163163165,155.9049709352822L432.43243243243245,138.42590997170174L433.23323323323325,121.47871744964849L434.034034034034,170.5542869552552L434.8348348348348,142.82620975048286L435.63563563563565,157.37850072592173L436.43643643643645,162.47147543088153L437.23723723723725,149.61794278647068L438.03803803803805,146.99402098221967L438.8388388388388,111.97138902657932L439.63963963963965,111.78483418980258L440.44044044044045,177.6478669774324L441.24124124124126,147.8645207000388L442.042042042042,151.28305161240823L442.8428428428428,149.0912387416675L443.64364364364366,117.56662461673591L444.44444444444446,113.79724981326308L445.24524524524526,177.94334026439907L446.04604604604606,179.08932182279239L446.8468468468468,165.30424130606607L447.64764764764766,146.74986657071995L448.44844844844846,115.4127145681899L449.24924924924926,71.048811444114L450.05005005005,146.84009447549377L450.8508508508508,122.48199295022809L451.65165165165166,136.6612122560748L452.45245245245246,115.16025447887691L453.25325325325326,138.4998197186422L454.05405405405406,154.98499595400736L454.8548548548548,161.43869367472468L455.65565565565566,122.33895125891155L456.45645645645646,159.3772663323856L457.25725725725727,131.59523254228043L458.058058058058,161.79915365073524L458.8588588588588,93.96735575234192L459.65965965965967,162.16770606685145L460.46046046046047,191.58745473312712L461.26126126126127,96.76410373321804L462.06206206206207,155.3810252340179L462.8628628628628,174.86027155390428L463.66366366366367,157.74265314411207L464.46446446446447,149.5571417738735L465.26526526526527,180.21608939794513L466.066066066066,115.0099069689235L466.8668668668668,140.4428951254427L467.6676676676677,96.58695073779938L468.4684684684685,197.91578522806788L469.2692692692693,147.80608735940683L470.0700700700701,143.1390958395894L470.8708708708708,165.78324170905069L471.6716716716717,139.50280042709574L472.4724724724725,187.22075577699795L473.2732732732733,131.89944076947577L474.074074074074,137.86161863000143L474.8748748748748,159.6510316218358L475.6756756756757,139.5919771306227L476.4764764764765,186.7326953369311L477.2772772772773,158.79908096406336L478.0780780780781,151.09742876516938L478.87887887887894,212.97150155717873L479.6796796796797,85.89327037095177L480.4804804804805,159.90043057818565L481.2812812812813,146.9616731608684L482.082082082082,158.5957987589522L482.88288288288294,210.19736710735313L483.6836836836837,152.444654467633L484.4844844844845,141.77766930756678L485.2852852852853,136.47055025873826L486.0860860860861,140.14562668429923L486.88688688688694,147.4374063434929L487.6876876876877,154.66964441074552L488.4884884884885,161.32345528162153L489.2892892892893,127.06869414608497L490.09009009009003,163.7841463703905L490.89089089089094,125.09681887241533L491.6916916916917,90.93551587794636L492.4924924924925,168.65567753643032L493.2932932932933,179.59533536020186L494.0940940940941,164.4520017080226L494.89489489489495,94.92369399077754L495.6956956956957,137.63580082111875L496.4964964964965,127.01106136049046L497.2972972972973,147.4153567291709L498.09809809809803,176.81619411269781L498.89889889889895,151.18371370458007L499.6996996996997,143.3788001850417L500.5005005005005,156.30134918660113L501.3013013013013,138.34093498253287L502.1021021021021,139.99446762044724L502.90290290290295,97.53968455728074L503.7037037037037,117.23024360164277L504.5045045045045,170.58988964515888L505.3053053053053,199.0782964140907L506.10610610610604,154.63828820852694L506.90690690690695,173.45269842799271L507.7077077077077,134.43231665357678L508.5085085085085,138.42357956233954L509.3093093093093,163.7967520272181L510.1101101101101,74.63912023690813L510.91091091091096,176.84477501862L511.7117117117117,123.14855017439601L512.5125125125126,141.47342839055892L513.3133133133133,193.90686461486848L514.114114114114,164.56066997188574L514.9149149149149,163.95156310656523L515.7157157157158,139.49576141761182L516.5165165165165,133.76220147988397L517.3173173173172,168.42939081789012L518.1181181181181,208.92342555529243L518.918918918919,145.40822035678144L519.7197197197197,119.37053366489323L520.5205205205206,131.45695231291978L521.3213213213213,224.15879293513643L522.122122122122,158.6852985462108L522.9229229229229,171.62530487985129L523.7237237237238,171.862384469687L524.5245245245245,124.44959274570672L525.3253253253253,130.77175287629024L526.1261261261262,91.22373791035884L526.926926926927,141.84414034971928L527.7277277277277,171.16098294783262L528.5285285285286,140.21912313244093L529.3293293293293,156.8231209059591L530.1301301301302,143.62021592771097L530.9309309309309,179.93824137190092L531.7317317317318,116.3467888726912L532.5325325325325,156.0553802781808L533.3333333333333,175.5930464702688L534.1341341341342,138.84004076566373L534.934934934935,118.52683976919693L535.7357357357357,188.10170675325764L536.5365365365366,169.5717824358122L537.3373373373373,170.31167386646962L538.1381381381382,90.17330221504227L538.9389389389389,147.44116696194206L539.7397397397398,200.4882368288465L540.5405405405405,145.30906446907926L541.3413413413413,172.35433557784384L542.1421421421422,151.36085585332822L542.942942942943,147.91269225519375L543.7437437437437,131.93562915152677L544.5445445445446,139.0802994215884L545.3453453453453,125.1067055706173L546.1461461461462,148.95226162873087L546.9469469469469,152.6615926461524L547.7477477477478,105.42833345474807L548.5485485485485,170.4197505337249L549.3493493493493,99.9411913244885L550.1501501501502,139.37100120740132L550.950950950951,140.24923544052496L551.7517517517517,135.16652333746538L552.5525525525526,178.7929229712173L553.3533533533533,157.87971022545446L554.1541541541542,127.31249933783442L554.9549549549549,182.90991251921534L555.7557557557558,87.85108369688908L556.5565565565565,113.62007979491392L557.3573573573573,162.8709208055903L558.1581581581582,143.98530517963127L558.958958958959,183.22994655631157L559.7597597597597,144.98318401914557L560.5605605605606,196.98008488525153L561.3613613613613,180.87117397150791L562.1621621621622,184.82173629925484L562.9629629629629,149.50678149027502L563.7637637637638,90.85435198237934L564.5645645645645,147.07177746880433L565.3653653653653,126.73735519743582L566.1661661661662,134.3653676686608L566.966966966967,138.91169035275988L567.7677677677677,150.51857531992496L568.5685685685686,163.54404053495978L569.3693693693693,106.25754354587502L570.1701701701702,210.963569116487L570.9709709709709,161.78897701389005L571.7717717717718,188.26278751540562L572.5725725725725,121.29230050880815L573.3733733733733,148.98896282627877L574.1741741741743,111.60026038886889L574.974974974975,163.08039139982347L575.7757757757757,147.0889155224832L576.5765765765766,148.46628393842906L577.3773773773775,153.38686202694242L578.1781781781782,117.92643475459181L578.978978978979,173.2868009334833L579.7797797797798,116.0089832779093L580.5805805805805,142.11247615253396L581.3813813813814,115.17879425798273L582.1821821821823,140.3228457236092L582.982982982983,114.610711755034L583.7837837837837,153.28403077614587L584.5845845845846,156.542272054356L585.3853853853855,146.4367917937833L586.1861861861862,151.4786458937584L586.986986986987,143.90348252467794L587.7877877877878,155.1285130385787L588.5885885885886,103.4204167800919L589.3893893893894,136.28170877755036L590.1901901901903,146.4902229125949L590.990990990991,124.34992869819476L591.7917917917918,134.2320462287353L592.5925925925926,160.4518781971704L593.3933933933935,176.6307804760335L594.1941941941942,167.48438549523686L594.994994994995,140.5664841159012L595.7957957957958,152.5168919963833L596.5965965965966,84.85765330969375L597.3973973973974,121.1650296958849L598.1981981981983,141.77058837809872L598.998998998999,139.09805367849984L599.7997997997998,189.82776720772443L600.6006006006006,152.55242478562425L601.4014014014015,106.19571139923113L602.2022022022022,161.1548511484905L603.003003003003,129.78974588484564L603.8038038038038,176.9512451250806L604.6046046046046,184.22329871866515L605.4054054054054,170.55809573082828L606.2062062062063,151.01836743728836L607.007007007007,153.2421793148575L607.8078078078078,88.48802645347044L608.6086086086086,130.16331007994214L609.4094094094095,156.90804255461615L610.2102102102102,161.3601905939023L611.011011011011,149.2377585151904L611.8118118118118,157.63128527671012L612.6126126126126,157.62700265967658L613.4134134134134,127.82771244191719L614.2142142142143,184.0997548207659L615.015015015015,139.4101061730314L615.8158158158158,154.98963764177716L616.6166166166166,164.86889670520762L617.4174174174175,135.9130939920686L618.2182182182182,94.99745511014447L619.019019019019,178.92273868668133L619.8198198198198,150.54329097098017L620.6206206206206,148.2463507302161L621.4214214214214,159.12253558012026L622.2222222222223,144.4544736716183L623.023023023023,157.95529885253157L623.8238238238238,173.7581236689963L624.6246246246246,134.41865756702234L625.4254254254255,147.3769830015232L626.2262262262262,138.583654084845L627.027027027027,161.48350921924623L627.8278278278278,109.7187475589696L628.6286286286287,173.0777347335502L629.4294294294294,134.13191682756985L630.2302302302303,166.4357796113328L631.031031031031,165.80626194477557L631.8318318318318,163.54664323221132L632.6326326326326,128.52311782505572L633.4334334334335,131.72032689528376L634.2342342342342,142.5501811462868L635.035035035035,119.54785723478213L635.8358358358358,103.5022615675307L636.6366366366367,104.83673311550484L637.4374374374374,121.11600500322501L638.2382382382383,119.77005313883365L639.039039039039,173.53830060463812L639.8398398398398,174.52985211894355L640.6406406406406,150.66664981734402L641.4414414414415,97.50821030083588L642.2422422422422,165.2571995177699L643.043043043043,137.28036806773002L643.8438438438438,134.01022712680992L644.6446446446447,181.5456338164759L645.4454454454454,162.50488341000917L646.2462462462463,100.7297772993171L647.047047047047,141.99349383137474L647.8478478478478,145.9463955399442L648.6486486486486,149.48455511162214L649.4494494494495,88.14120897100167L650.2502502502502,190.72694504286952L651.051051051051,111.0091661987756L651.8518518518518,56.74268324937444L652.6526526526527,162.68765644757937L653.4534534534534,109.42557753584714L654.2542542542543,155.86118664854914L655.055055055055,84.41390972379926L655.8558558558558,157.81311266892118L656.6566566566567,186.42030028843857L657.4574574574575,124.0115895653311L658.2582582582583,151.4054865637267L659.059059059059,116.89190029457828L659.8598598598599,128.77710306388119L660.6606606606607,175.58454337444988L661.4614614614615,120.22010155089399L662.2622622622623,93.6230507316549L663.063063063063,176.72420045687954L663.8638638638638,193.96526776960937L664.6646646646647,131.1598875530514L665.4654654654655,147.9961088894724L666.2662662662663,173.27168638231586L667.067067067067,168.1932391524319L667.8678678678679,117.96422151058994L668.6686686686687,172.30658569191095L669.4694694694695,150.60047589693107L670.2702702702703,118.34384974543798L671.0710710710711,156.80777402760307L671.8718718718718,121.55462627391799L672.6726726726727,141.05270240166342L673.4734734734735,165.43537201035454L674.2742742742743,185.26640959054004L675.075075075075,120.29647599352617L675.8758758758759,178.0902085865356L676.6766766766767,206.53854609731866L677.4774774774775,187.14769703032852L678.2782782782783,179.76009174763283L679.0790790790791,129.94010524415094L679.8798798798799,132.3660609417949L680.6806806806807,128.7818787699535L681.4814814814815,122.58467687550262L682.2822822822823,133.62833755380956L683.083083083083,129.05810731370502L683.883883883884,177.04675117120485L684.6846846846847,156.7171948873714L685.4854854854855,167.93277893683265L686.2862862862863,147.42657706214223L687.0870870870871,154.20628889542678L687.8878878878879,89.7771533402817L688.6886886886887,173.82288396832297L689.4894894894895,97.5742110811064L690.2902902902903,131.50817111429475L691.091091091091,142.0461697940741L691.8918918918919,185.16647856743862L692.6926926926927,170.03310066053848L693.4934934934935,140.2904658357128L694.2942942942943,143.29640437456248L695.0950950950951,135.03675294798356L695.8958958958959,90.26445077228723L696.6966966966967,174.18002050390714L697.4974974974975,153.15189177587212L698.2982982982983,197.65301734567674L699.099099099099,202.2361704512321L699.8998998999,174.24588738355257L700.7007007007007,154.92525033770914L701.5015015015015,167.83772343046604L702.3023023023023,152.448223025598L703.1031031031031,133.7037620793406L703.9039039039039,184.78151033992435L704.7047047047047,168.159572054161L705.5055055055055,80.13008345812142L706.3063063063063,135.51612473228772L707.107107107107,197.9104745722803L707.9079079079079,130.2537998792941L708.7087087087087,152.99887661679978L709.5095095095095,160.02607685373573L710.3103103103103,138.46182303194513L711.1111111111111,141.56916756540616L711.911911911912,175.015579409135L712.7127127127127,142.06656606618944L713.5135135135135,121.71943599604228L714.3143143143143,198.88496836127308L715.115115115115,154.9555028986922L715.915915915916,131.96304482338732L716.7167167167167,139.62134568585856L717.5175175175175,126.06882447732517L718.3183183183183,118.62219498942028L719.1191191191191,128.3753584102153L719.91991991992,117.51468326259806L720.7207207207207,129.6496293436385L721.5215215215215,122.83447172882109L722.3223223223223,156.1484784002618L723.123123123123,127.89743907390596L723.9239239239239,168.83364394731282L724.7247247247248,113.80738206805063L725.5255255255255,141.29555362005323L726.3263263263264,147.94166795034525L727.1271271271272,175.8551166588085L727.927927927928,156.74561502832387L728.7287287287287,99.21705330338844L729.5295295295296,160.78527741253296L730.3303303303303,125.79686315377799L731.1311311311312,164.34712616178425L731.931931931932,184.17542473682073L732.7327327327328,94.75860290576864L733.5335335335335,142.25938206741068L734.3343343343344,224.32344510201028L735.1351351351352,101.71707840130549L735.935935935936,162.82882764193545L736.7367367367367,104.76963025787134L737.5375375375376,171.33998809944933L738.3383383383383,104.20828886001115L739.1391391391392,144.03582248651998L739.9399399399399,139.24410827785476L740.7407407407408,172.5409314155618L741.5415415415415,143.86390764944807L742.3423423423424,135.23279617896006L743.1431431431432,155.31640020452858L743.943943943944,114.30973197872746L744.7447447447447,170.8004664216391L745.5455455455456,120.83876146938809L746.3463463463463,168.10326297145343L747.1471471471472,194.05995615430254L747.947947947948,108.71607286706165L748.7487487487488,118.55931107435816L749.5495495495495,108.76876259156833L750.3503503503504,169.02077363873207L751.1511511511512,93.86890135492263L751.951951951952,190.9527308596798L752.7527527527527,135.9187149765219L753.5535535535536,151.18915060037307L754.3543543543543,126.67218366001799L755.1551551551552,119.00322302602072L755.9559559559559,207.53631126746689L756.7567567567568,193.06339416602114L757.5575575575575,189.62857353264147L758.3583583583584,204.69963111341616L759.1591591591592,103.78350632129354L759.95995995996,149.50793546826264L760.7607607607607,165.02161832773683L761.5615615615616,148.80382385794957L762.3623623623623,164.22367962548765L763.1631631631632,105.29056491608486L763.963963963964,111.51727184318256L764.7647647647648,122.46227795366065L765.5655655655655,144.04620639049205L766.3663663663664,204.7062469193301L767.1671671671672,160.32499886890557L767.967967967968,173.27532557325662L768.7687687687687,177.05565810006047L769.5695695695696,179.46715773887098L770.3703703703703,167.52073938929533L771.1711711711712,125.89934122473898L771.9719719719719,174.17550557147092L772.7727727727728,119.60960257696729L773.5735735735735,152.73852928686412L774.3743743743744,151.8900782070368L775.1751751751752,164.16824769914373L775.975975975976,181.1279314202888L776.7767767767767,153.5938183249237L777.5775775775776,110.83874001116592L778.3783783783784,160.04686392999506L779.1791791791792,107.54275450622546L779.97997997998,147.62037733228996L780.7807807807808,149.20838927434824L781.5815815815815,200.3455546276968L782.3823823823824,181.48721803657065L783.1831831831832,141.1510093395967L783.983983983984,164.08929517184671L784.7847847847847,104.54280206336472L785.5855855855856,217.30733050930763L786.3863863863864,138.76143256316703L787.1871871871872,167.7116826907277L787.9879879879879,172.82025440520823L788.7887887887888,139.64114974748375L789.5895895895895,169.38927638551556L790.3903903903904,160.19458461098156L791.1911911911913,144.82592960099103L791.991991991992,130.63275948370088L792.7927927927927,169.98426272681647L793.5935935935936,127.9330853430163L794.3943943943945,158.12899232588072L795.1951951951952,155.76245744032076L795.995995995996,136.85269761624437L796.7967967967968,205.1852103635817L797.5975975975975,67.30103811462399L798.3983983983984,144.96786915345263L799.1991991991993,165.55527843686005L800,198.42143430938302"
    fill="transparent"
    stroke="green"
  ></path>
</svg>
